/* XPM */
static char *result[] = {
/* columns rows colors chars-per-pixel */
"50 50 210 2 ",
"   c #0A0A0C",
".  c #121315",
"X  c #022C1E",
"o  c #03331D",
"O  c #0B321F",
"+  c #06391F",
"@  c #0E3C1F",
"#  c #113D1F",
"$  c #002721",
"%  c #022C22",
"&  c #092E24",
"*  c #1D2226",
"=  c #182827",
"-  c #1A2D27",
";  c #1D2B29",
":  c #043423",
">  c #093522",
",  c #063B25",
"<  c #0A3C23",
"1  c #0D3D2A",
"2  c #1C3227",
"3  c #113D22",
"4  c #11302A",
"5  c #143D2C",
"6  c #153730",
"7  c #143A31",
"8  c #202A26",
"9  c #212328",
"0  c #212E2C",
"q  c #203427",
"w  c #22312C",
"e  c #282D33",
"r  c #293134",
"t  c #2B3236",
"y  c #363C3B",
"u  c #0B421F",
"i  c #15441E",
"p  c #18471E",
"a  c #1B4C1E",
"s  c #1C521E",
"d  c #1B581D",
"f  c #22541E",
"g  c #255B1E",
"h  c #295D1D",
"j  c #29621B",
"k  c #2C641E",
"l  c #2E681E",
"z  c #31661C",
"x  c #316A1D",
"c  c #386C19",
"v  c #064025",
"b  c #0C4325",
"n  c #0E4926",
"m  c #0B4428",
"M  c #0E4A29",
"N  c #124522",
"B  c #144B24",
"V  c #194C21",
"C  c #1D432D",
"Z  c #124D28",
"A  c #1A4A2B",
"S  c #165125",
"D  c #1B5323",
"F  c #1E5A26",
"G  c #155229",
"H  c #1B5329",
"J  c #1C5A28",
"K  c #154233",
"L  c #1C4432",
"P  c #1D4B33",
"I  c #1B4A3A",
"U  c #1E5235",
"Y  c #224C2A",
"T  c #205521",
"R  c #225C22",
"E  c #2D5A27",
"W  c #284C39",
"Q  c #225232",
"!  c #295837",
"~  c #23533B",
"^  c #335C34",
"/  c #256122",
"(  c #296421",
")  c #286327",
"_  c #316225",
"`  c #39682D",
"'  c #326432",
"]  c #386934",
"[  c #3F7437",
"{  c #44453F",
"}  c #444C3B",
"|  c #436B3D",
" . c #443F41",
".. c #344843",
"X. c #2A544A",
"o. c #355742",
"O. c #434342",
"+. c #4A4344",
"@. c #444C4E",
"#. c #484848",
"$. c #4C4A4B",
"%. c #534C4D",
"&. c #53524B",
"*. c #464D50",
"=. c #484D55",
"-. c #4A5C58",
";. c #5B5455",
":. c #585559",
">. c #605759",
",. c #635C5D",
"<. c #476F40",
"1. c #4A5760",
"2. c #4F5E68",
"3. c #595D64",
"4. c #545D6A",
"5. c #685E61",
"6. c #5C636A",
"7. c #5B6473",
"8. c #5F6C7A",
"9. c #6A6464",
"0. c #64656D",
"q. c #716769",
"w. c #746B6C",
"e. c #786D6F",
"r. c #666971",
"t. c #6A6C75",
"y. c #626C7B",
"u. c #6C6E78",
"i. c #776E71",
"p. c #796E70",
"a. c #69717B",
"s. c #7D7275",
"d. c #7C787C",
"f. c #817477",
"g. c #837679",
"h. c #86797C",
"j. c #897C7E",
"k. c #85857D",
"l. c #666F80",
"z. c #6A7587",
"x. c #677D89",
"c. c #6D798A",
"v. c #7A7B84",
"b. c #717B8C",
"n. c #857F85",
"m. c #8B7E81",
"M. c #7A868A",
"N. c #6F8091",
"B. c #788797",
"V. c #79859A",
"C. c #7F8CA0",
"Z. c #8E8184",
"A. c #888389",
"S. c #918487",
"D. c #948689",
"F. c #958B8B",
"G. c #998C8E",
"H. c #9B928F",
"J. c #828591",
"K. c #888B97",
"L. c #968D91",
"P. c #9E8E91",
"I. c #89929A",
"U. c #9D9293",
"Y. c #95929B",
"T. c #A39396",
"R. c #A69598",
"E. c #A89599",
"W. c #A8979A",
"Q. c #A49B99",
"!. c #AB999C",
"~. c #ABA29D",
"^. c #818FA4",
"/. c #8391A6",
"(. c #8593AA",
"). c #8A97A8",
"_. c #9496A3",
"`. c #969AA3",
"'. c #9A9DAB",
"]. c #8C9DB3",
"[. c #A19DA6",
"{. c #AE9DA1",
"}. c #B09EA1",
"|. c #9CA2AE",
" X c #9FA9AE",
".X c #89A3B4",
"XX c #9FA2B0",
"oX c #9EA8B2",
"OX c #94A4BC",
"+X c #B3A1A4",
"@X c #B7A5A8",
"#X c #B9A7AA",
"$X c #BCAAAD",
"%X c #A2A5B4",
"&X c #A8A9B6",
"*X c #BFADB0",
"=X c #C1AEB1",
"-X c #C3B0B3",
";X c #C8B3B7",
":X c #96ACC3",
">X c #9AACC4",
",X c #9BB1C5",
"<X c #AEAFC0",
"1X c #A8B4C4",
"2X c #B3B5C5",
"3X c #BABACD",
"4X c #A7B9D4",
"5X c #AEBFDD",
"6X c #B0C1DF",
"7X c #B1C1E0",
/* pixels */
"N / J m m v : % Z R > : , > , , : : n J G : X : , , : , : : : m G J S B D # b F J , % % , v : < s < ",
"( / N , M F V % % > B F S v D J Z S ( j , : % % : S F B % : > : > T k b % X s k S > % , m b , , < v ",
"N b > % > f x a X i ] ' U ~ ] R b j ( N : % % % > g R b , n m : $ > S < % % < N > % % < / R b Z G 1 ",
"b v G Z > < ( h : ' M.B.C.,X.XX.: @ < , % & M Z b < > b R j Z : : : , 1 > b S Z : $ % , D x g V / ( ",
"g < D k R b > i 5 N.C.(.OX6X7X.XU o : > < m B ( ( 3 > g x D , : Z T S , B k D m M v % % < D f O B k ",
"p : : a x a X K X.C.(.C.OX4X6X1X! o V R G , % < ( j < V a , % % v R j < , V > : Z / B % % < b m b B ",
"Z < % % s p X..X,X]././.OX4X7X:XI + R s , , % % N D Z b : % % % : b b : : M M : : D R < : V / D < , ",
"R ( N % X I .X7X5X:X/.C.OX4X7X,X~ > > : > D G , > g ( < % v v : $ , S S < m G m : , N M m D D > % : ",
"< a n b , I :X6X4X:X/.^.OX4X5X>X[ a % X f ( V , m D N % < G R B % : V l s & N R S , , Z T D > : : % ",
"< > V ) H I N.).(.C.V.V.).OX>X].] z : % N B : v G n : > , 1 R l a , , N @ % D ( N : : , T z D b M M ",
", B _ -.1.1.4.7.7.l.c.b.V./.(.B.P a , : : , p h F v : < G Z b g k b % % % > b B Z Z > % > R j S ( R ",
"> R _ 1.4.4.4.4.4.7.z.c.N.^.^.B.H o : m , > l h + X % a ( S : > i o % b D Z : : B ( h < $ : > < f u ",
"% u A 2.7.7.7.7.7.8.l.l.c.J.^.J.| Y ! ' ~ W ` Q 7 % % < V > % % : : n l ) B b v > V l g & : b < < : ",
"$ : K 8.c.x.z.z.z.8.4.4.t.v.n.m.F.F.T.~.~.W.F.F.A.Q N < : , % , m 1 h j b , D ( V , i s : , D ( Z , ",
"b S U y.b.b.c.c.z.y.4.4.r.f.g.m.E.!.{.=X;X=X}.!.F.P g g u : , S D < p < % : n g a : % > < : N R p , ",
"k j U 2.7.7.7.7.7.1.=.=.3.f.h.S.!.{.}.=X-X$X+X+XU.W A ' P C ' ( a : : % % , Z b % % Z R Z < , v : % ",
"a n b r t e t t t e e e =.s.m.D.@X=X=X=X-X-X=X=X#XU.F.F.F.F.k.' + Z Z , $ : D R N < / R < > : , , : ",
"v , < * 9 9 * 9 9 9 * 9 +.p.h.G.$X=X-X=X-X-X-X-X$X}.!.!.!.+XF.Y d k S < : : < h x V < > b Z , , G G ",
": v 1 * * ; 8 8 * * = = O.s.h.G.$X-X-X=X-X=X@X+X}.W.W.!.!.{.L.o.^ Y : v J J , < h s : i k g < B ( R ",
", G R B > & i E f 1 1 1 L i.h.F.$X;X-X-X-X@XZ.f.m.T.W.!.@X*X#XU.F.d.6 , D ( 3 $ N N N z j b N z g b ",
", n h R : % % B z s D j J i.h.F.$X-X-X-X-X+Xg.w.f.P.!.!.$X=X=X+X{.F.7 : < N : : , , 3 g b , < a > % ",
", m n > % % : : N g x D P w.g.F.#X=X=X=X=X+Xj.p.g.D.P.P.#X=X=X}.W.F.W P K % % b J b : < , , b G < > ",
": Z F b % b F D < D f > 5 9.p.j.W.}.}.!.!.!.T.G.D.h.f.j.}.=X=X{.W.W.F.F.k.6 : n R k N , : % < / k a ",
"$ > h k V , B ( V > B n 5 9.e.g.T.!.W.W.W.!.W.W.P.f.w.s.{.=X$X}.W.W.!.{.F.P v v B j z < m m v b g c ",
"% % @ h j > , b > N ( D 1 ,.q.f.P.R.T.W.W.!.!.!.T.h.p.h.!.@X@X{.!.W.W.!.H.<.' A , b f b S ( D : > h ",
"T Z , > b B D n , V g < 5 $.;.,.j.m.D.R.W.!.@X$X@X{.{.!.D.j.m.T.W.W.@X$X$XQ.H.h.7 > b , b T D : , < ",
"R ( N % D k R v % $ : < 1 O.+.;.f.g.Z.T.!.{.=X=X=X-X-X#Xj.w.p.G.W.!.#X-X-X+X{.F.L s F , : , , B M : ",
"> V < 3 z R < : % 1 Z v : y { ;.e.f.j.P.R.W.#X=X=X=X=X@XS.e.s.D.T.R.@X-X-X+X!.S.` j S : % : T R n : ",
": , v n f > : % i ( R : : < K #.;.>.,.f.j.S.E.+X+X}.+X!.P.D.D.j.h.j.!.=X-X+X{.F.` S v > % a x T : % ",
", G R D > , v N z ( b : , n m 5 { +.%.q.w.f.P.W.W.W.!.W.E.W.T.g.q.e.R.=X-X}.{.F.Q d D < : R f > , , ",
": < h k B , , N h 3 , , : S R V y  .%.9.q.e.G.R.R.W.W.!.!.!.T.m.i.s.W.#X$X+X!.L.o.[ ! & : , < > M Z ",
": % < k h : : < , , G N % < h D & 4 #.;.;.,.j.S.D.T.W.!.+X#X@X{.W.R.G.S.D.Q.&X&X XoXI.7 , G M < Z ( ",
", , , n B , , , : % D k V , n , % : P O.+.%.s.g.Z.T.W.!.#X;X-X=X-X#XD.w.i._.2X2X2X3XoX! j R , : v R ",
"F F b : > Z b , < , > a B , , , v , < } { %.w.f.h.G.R.W.#X=X=X=X-X#XD.i.i.Y.%X&X<X2X|.! D v % : v < ",
"s k N > D / b % B R D > : < D / G , % 3 E &.;.,.5.g.Z.S.W.}.+X+X+X{.Y.I.J.r.=.:.K.2X|.I , m m Z , % ",
"> n n g z V : : > D x g + f x R 1 : : : N Y O.+.%.9.w.s.G.!.!.!.!.!.[.%X_.#.  . t.<XoX~ , : R j N % ",
", , v h V : , < % o f j b a D b b D G < , 1 y +.$.,.q.e.F.T.T.W.W.R.[.%X_.*.. . a.<X X! X % b g B : ",
"S , > n B , : : % X > m , : : > a j N % % , E } $.;.;.>.q.e.w.f.n.A._.|.'.v.3.3.K.&X`.L X % : > N R ",
"O : B / H > : b Z < : : M Z v : > b % % $ < z f 2 { +.+.+.+.%.0.t.u._.XX'.'.XX'.|.%XI.I X : , v ( z ",
"% % a g b < f ( J , : : B ( g > : , > : : b Z u T } +.+. .+.$.:.r.u.I.'.'.XX%X'.'.'.I.P : , v V h < ",
": v v > > s x D , : v v , V z s : , , , , J J b p Y y { { O.#.0.t.t.v.J.B.J.J.J.u.6.-.A F J : % > : ",
", S ( a , < N % < R F n , > i i + m G m > N k h O O N _ E B 5 6.t.t.u.u.t.t.u.r.@.w ; > T x V > m J ",
"B < R l a % : % N / D < : % % , D k D > : : p l i : i k S , 1 6.t.r.0.r.r.0.r.0...- = > b R j b S ( ",
"p % > R T < D D N > m v : % % V l f > , , : : m m < , O o u H @.*.@.$.*.*.*.*.*...Y b : , n Z < > i ",
"< < : : , , D k a < F J , : : p g > + D R m , B R J m , > s h w 0 0 0 0 0 0 w - 3 j g > b R J : % % ",
"( A % $ : : : < V j h b : , v < > > f k F , : D / 3 : , @ k T = ; ; ; ; ; ; 8 - , @ b < k k N , b Z ",
"T : % > J Z : % a z N : % b J Z : > g D o $ % % > : , : X @ < > ; q ; ; ; ; q 2 : : : B j N % N ( ( ",
", % < ( j < % : # B v , : : T k D v b : % , , % % B F B : % < , @ a 3 X 3 h T > % , M Z > > , B s p ",
"% : h z # % : m b < M F D b b g k N : : , Z R F > O s k s : , , < < < , S d > % , v m J H < M G < % ",
"% : f i $ $ : N ( d < D k D , < i o % : , , s l N % & h z X % b G m , F ( i % : M G , V x i b / F : "
};
