/* XPM */
static char *_dc219d17c894cf29bbcb04c009d4b97pSgiuk8IqneThqQq[] = {
/* columns rows colors chars-per-pixel */
"50 50 242 2 ",
"   c None",
".  c #50111B",
"X  c #551A25",
"o  c #631C2A",
"O  c #771D36",
"+  c #58282C",
"@  c #6B2B38",
"#  c #742539",
"$  c #683339",
"%  c #6F2C32",
"&  c #763943",
"*  c #784049",
"=  c #88313D",
"-  c #883847",
";  c #884452",
":  c #D2757D",
">  c #CB6C72",
",  c #BF8D7B",
"<  c #C78976",
"1  c #D58979",
"2  c #DC9575",
"3  c #CD8E6F",
"4  c #E79077",
"5  c #D6A57A",
"6  c #E9AE74",
"7  c #DEC87D",
"8  c #F1CE7E",
"9  c #B87084",
"0  c #D57B86",
"q  c #CF7B8B",
"w  c #CA8D88",
"e  c #DC8D8C",
"r  c #D98688",
"t  c #CC988B",
"y  c #D79789",
"u  c #CD869A",
"i  c #DC8493",
"p  c #D88A96",
"a  c #C99495",
"s  c #D49293",
"d  c #D2999A",
"f  c #D99897",
"g  c #E48C8A",
"h  c #E5968B",
"j  c #E58A9A",
"k  c #E78997",
"l  c #F3899C",
"z  c #E49395",
"x  c #E59C94",
"c  c #E3949B",
"v  c #E9939A",
"b  c #E99998",
"n  c #F1949A",
"m  c #F5978A",
"M  c #D8A288",
"N  c #DBA695",
"B  c #D1B294",
"V  c #E7A58A",
"C  c #F4A788",
"Z  c #FABD88",
"A  c #E4A596",
"S  c #EBB592",
"D  c #F7B799",
"F  c #EAAD97",
"G  c #DD85A3",
"H  c #DE94A3",
"J  c #DA98A7",
"K  c #CC86A0",
"L  c #E98BA5",
"P  c #F48CA4",
"I  c #F78DA9",
"U  c #E493A4",
"Y  c #ED94A3",
"T  c #ED9CA4",
"R  c #EC94AC",
"E  c #E49BAB",
"W  c #EA9AAB",
"Q  c #E397A6",
"!  c #F49BA4",
"~  c #F394AC",
"^  c #FB95AD",
"/  c #F59DAD",
"(  c #F896A8",
")  c #EC8CB4",
"_  c #EC93B3",
"`  c #EC9AB2",
"'  c #EA99B7",
"]  c #F494B3",
"[  c #FB95B3",
"{  c #F59CB4",
"}  c #FB9BB5",
"|  c #F49DBB",
" . c #FC9DBA",
".. c #F795BC",
"X. c #F18DB1",
"o. c #DBA4A9",
"O. c #DBA3B4",
"+. c #DCBDB0",
"@. c #E4A5AE",
"#. c #EBA4AC",
"$. c #E7A9A9",
"%. c #F4A3AB",
"&. c #F7A4A6",
"*. c #E9B8A8",
"=. c #F8BAAB",
"-. c #E6A4B5",
";. c #ECA4B3",
":. c #E9ABB2",
">. c #EEA4BB",
",. c #EBABBA",
"<. c #E3A5BC",
"1. c #F2A2B5",
"2. c #FBA2B5",
"3. c #F4A3BB",
"4. c #FDA3BB",
"5. c #F4AABC",
"6. c #FAAABE",
"7. c #F4ACB5",
"8. c #EDB3B4",
"9. c #ECB3BB",
"0. c #E8B9B6",
"q. c #F6B6B3",
"w. c #F8B8B9",
"e. c #D8C896",
"r. c #DBD392",
"t. c #ECCA83",
"y. c #E7CC88",
"u. c #F9CA89",
"i. c #ECD488",
"p. c #F8D689",
"a. c #E3CB95",
"s. c #E9C89B",
"d. c #FFCD93",
"f. c #FBCC9E",
"g. c #FAC698",
"h. c #E9D798",
"j. c #FED493",
"k. c #FDDC94",
"l. c #FDD49C",
"z. c #FFDD9D",
"x. c #F4D899",
"c. c #F2E18A",
"v. c #FEE19B",
"b. c #F4E39B",
"n. c #EEE49C",
"m. c #DCCAA5",
"M. c #DCD3A6",
"N. c #DFC1B7",
"B. c #E8C8A7",
"V. c #FDC4A4",
"C. c #F5CBA8",
"Z. c #FCCDAB",
"A. c #F7C4A9",
"S. c #E3D4A4",
"D. c #EAD8A7",
"F. c #FCD4A4",
"G. c #FEDCA4",
"H. c #F3D4AB",
"J. c #FED4AB",
"K. c #FDDBAB",
"L. c #F2D7A3",
"P. c #E8C9B8",
"I. c #FCCAB4",
"U. c #F9C6B7",
"Y. c #E8D8B6",
"T. c #FED3B4",
"R. c #FFDCB2",
"E. c #FEDCBC",
"W. c #F9D4B9",
"Q. c #ECE3A7",
"!. c #F6E2A3",
"~. c #FDE4A4",
"^. c #FDE3AB",
"/. c #F9E8A9",
"(. c #EBE2B5",
"). c #FFE3BA",
"_. c #FBE7B6",
"`. c #FFF4BD",
"'. c #FD9DC2",
"]. c #FC9CCB",
"[. c #F899C3",
"{. c #EEACC4",
"}. c #EDA4C3",
"|. c #F5A3C2",
" X c #FCA4C2",
".X c #F4AAC3",
"XX c #FDACC3",
"oX c #FFA4CB",
"OX c #FBABCB",
"+X c #F4A9CA",
"@X c #EAB9C5",
"#X c #F4B2C3",
"$X c #FDB3C5",
"%X c #FCBBC5",
"&X c #FCB4CB",
"*X c #FEBCCC",
"=X c #F3BAC5",
"-X c #FBA5D2",
";X c #FFB4D2",
":X c #FEBCD2",
">X c #FFBEDA",
",X c #FFC3C4",
"<X c #FFC3CC",
"1X c #EDD6C3",
"2X c #FFDCC3",
"3X c #FCD7C5",
"4X c #FFC3D3",
"5X c #FECBD6",
"6X c #FFC5DA",
"7X c #FFCBDC",
"8X c #FFDBD1",
"9X c #DEEFDC",
"0X c #EFE4CB",
"qX c #FAE7C7",
"wX c #FEE3D3",
"eX c #FDEAD8",
"rX c #FCF3D7",
"tX c #F3EFCD",
"yX c #FFC6E3",
"uX c #FFD4E3",
"iX c #FFD5E8",
"pX c #EADFE3",
"aX c #DBF9EF",
"sX c #E8EAE8",
"dX c #F5ECEB",
"fX c #FCEDEB",
"gX c #FBE9E7",
"hX c #E6F7EB",
"jX c #FEF4E5",
"kX c #FFFCE4",
"lX c #F4F3ED",
"zX c #FDF4EE",
"xX c #F8FAE9",
"cX c #EAE8F3",
"vX c #FCEDF1",
"bX c #FAE9FA",
"nX c #E9F6F7",
"mX c #FEF3F4",
"MX c #FEFCF4",
"NX c #FCF2FD",
"BX c #FDFBFB",
"VX c #F4F8F8",
/* pixels */
"                                                                                                    ",
"                                                                                                    ",
"                                      tXY.e.e.S.S.m.m.m.m.Y.qXrXkX                                  ",
"                                qXS.e.S./._./.!./././.).H.2XB.B.B _.kX                              ",
"                            _.S.~.~./.~.x.x.v./.G.^.K.R.C.E.W.E.).s.S.qXkX                          ",
"                        0XH.D.x.~.~.z.z.v.~.~.l.G.K.R.C.B t , t T.R.C.m.Y.rX                        ",
"                      Y.B.B.F.^.K.J.J.K.J.Z.J.T.E.Z.A.N N o.:.w.< y C._.Q.e.M.rX                    ",
"                    Y.Y.E.).R.Z.I.y < M Z.W.I.U.q.A $.:.5XuXuX4X#XA N a.~./.n.M.rX                  ",
"                  D._.D.E.E.=.t a :.w.:.f a s s a 5.5X6X#X}.{.+XyXyX$., /.b.n.Q.(.                  ",
"                M.Q./.L.qXA.N ,.$X4X6X*X#X5.,.,.#X&X&X.X>..X+X+X+X-X@.N s.b././.S.Y.                ",
"              S./.n.x._.T.t O.yX&X;XOXXX5.5.3.5.6.5.3.;.5..X.X}.}.}.,.$.M ).^.L./.(.Y.0X            ",
"            M.Q./.~.~.G.B.d &XyXOX3.| 3.3.3.1.5.W 1.7.6.4.XX6.5.OX+X&X-.a 3XE.H.G.L.e.M.            ",
"            m._.x./.G.J.3Xd <.yXOX| { 4.4.{ { 2.{ 2.2.} { 2. XXX|.>.&X<.-.<XU.qXR.).^.Y.eX          ",
"          m._.R._.G.R.2XU.J <.yX| ] { [ [ ~ ~ ( / ] ~ ] {  . X4.4.{ XX|.5.J c w.=.T.I.C.1X          ",
"          B._.J.).C.2X8.d 9.7X<. .[ ^ [ [ } [ [ X.I X.[ ......[ XX1..X4.5.' E Q s y t d +.8X        ",
"        m.qXH.E.I.w t d ,.9.,.>.{ [ ~ ~ [  .} [ }  . .[ [ X... .2.2.2.1.5.7XuX@.7.:.$.o.o.1X        ",
"      eXC.E.I.s w @.9.w.%XXX| |.| ] R 4.} } l I I l l 6.[ 2.] _ ]  .4.6.6.,.@X4X5XiX4X9.J +.jX      ",
"      H.2X,XA W *X7X5X<Xw.;._ [._ {  .~ R j k k k k j i v 2.6.] }  . . X5.:.@X@X@XO.=X6Xo.a +.      ",
"      B E.=.w w.*X#X5.,.3.3. ...] 4./ k c s =X@X#X=Xw.p v v } [  .} } 4.2.1.,.,.<.J yX6XJ d +.zX    ",
"    tXB.T.A c 5.%X-.-.5.5. X XP [ 2.j c :.P.zXmXvXfXwXU.q.j v 2.2.{  .4.4.XX5.>.3.| >X&Xf o.1X0X    ",
"    Y.J.Z.w 7.3.5.1.#X$X>.|  .^ I ( e U.eXdXBXlXlXlXtXkXwXw.v ^ 2.|  . .4.4.4.1.| X.^ 2.v f P.Y.    ",
"    e.G.T.w 1.| { ;.3.3.[.[.4.} l l t eXMXVXxXcXsXhX9XxXkXeX&.i { 3. .} 4.2.2.} I ^ P ^ v N P.Y.    ",
"    a.G.J.y W  X:X$X3.3.-XoX2.n n &.P.sXVXVXxXmXdXVXnXhXxXxXU.e R { 4.4. .2.2.{ R } ^ l ! =.I.P.    ",
"    a.z.f.f W 3.6.$X6.[.-X].! &.g &.gXlXnXhXdXmXmXVXVXaXaXeXwXq.H { 4.4.4.4.5.,.{ ~ I k &.=.=.P.    ",
"    a.k.l.M W 3./ 2.2. X].oX2.! w U.fXbXcXbXpXBXmXmXBXnXnXdXrX*.E L  .4.3.$XJ O.H T L k v v M *.    ",
"    y.v.G.D #.U %.2.4.'.].].2.b y 8.vXbXcXNXdXzXMXBXBXnXcXsX0X*.p  X{ { $Xu * . & H i : g 1 F C.    ",
"    e.x.z.J.=.p %.2.4.'.].'.} &.x *.bXbXNXNXBXzXmXmXVXVXcXvXwX=.p ]  X:XE & o.$ X % i uX,Xe U.U.    ",
"    e.i.k.~.=.x n %. . X].oX2./ v #.iXbXNXNXBXfXlXlXcXBXbXmX8Xq.U  X{ 5.Q & + + & X q 4X%X1 < *.    ",
"    M.i.p.v.F.=.v ! }  .'.'.4.2.( Q 9.fXBXBXmXgXgXdXsXBXzXzXw.c >.6.XX1.E @ $ X . - G i 0 y N       ",
"    Q.h.c.k.j.V.h T }  . . X X2.4.T d 8XjXBXmXvXdXdXjXkXkX8X:.u $X.X:X4.1.-.@ @ - | 4.i g z N       ",
"    `.r.c.8 j.V.y Y }  .4.4. X6.$X5.f *.2XeXmXmXdXdXrXqXqX*.$.O.{.6X:XU XX` H 3.R L P  .i $.3X      ",
"      r.c.p.j.f.g ! } 4. .4.|.|.{.=X$.y =.0.gXmXfXgXwX=.*.a o.@X{.>.3.{ 5.{ 4.' | } / v e I.        ",
"      n.i.8 j.D b l  .] 4.{ 3..X@X:X&X` p E 8.q.*.w.7.p U 5.@X=X}.-X' 3.{ 4.[.....Q x y C.T.        ",
"      `.y.k.g.m g XX] )  .XX6.;.,.&X>XOX3./ c f w b p 6.| 5.6X6X;XE 3.1.4.i | | U s A s.^.          ",
"        a.F.g.1 v >X) ..oX[.| 5.>..X:X4X&XXX,.` 5.;.5.$X*X4X$XE 7.1.7.! z = %.e V D g.F.H.          ",
"          B.V.M A &X_ [.]...| 4. X4.$X*X<X*X:X4X:X$X<X%X%X5X` 5.%.%.#.! k % x C D ^.j.K.            ",
"          W.B.D 1 T XX..) [.OX} [.[.4.%X,X%X&X;X;X7X0.0.q.@.` 3.%.%.U - - e V D j.v.t.h.            ",
"            B.C.M y w.6.[.[.oX'.].[. .7.9.:..X.X;XK $ + $ @.' [.2.W ` G j w.3 d.p.p.i.              ",
"            Y.C.s.5 V q.2.~ [ '.].[.} #.#.@.,..Xu ; $.. % % _ '.R XX' oX3.f V u.p.p.!.              ",
"              S.L.l.3 h h v Y P I [ [ / 1.;.;.-.@.X $ % o % R { / R ) ' W s V.G.l.p.                ",
"                H.s.f.l.Z 2 : g m l ( ( R 6.J -.K # o O . - g b b &.T i x =.J.f.                    ",
"                  E.x.j.j.d.g.V.=.m k P ~ ' H O.>.9 & O = 1 h 2 2 1 2 A V.F.F.F.                    ",
"                    L.y.8 p.k.d.d.C m n [ _ _ K K | q X.: =.g.u.8 Z d.u.d.x.x.                      ",
"                      L.i.i.t.8 u.d.D b L { iXyXq ;XL k n V.6 k.k.u.8 k.p.                          ",
"                          ^.x.i.y.F.R.F e i >X6X_ i 0 r 1 D d.u.t.i.i.y.                            ",
"                                h.a.B.A.N 1 g : > r g 1 S g.f.l.l.h.                                ",
"                                      S.S S C 4 4 1 2 2 5 S T.                                      ",
"                                                                                                    ",
"                                                                                                    ",
"                                                                                                    "
};
