/* XPM */
static char *result[] = {
/* columns rows colors chars-per-pixel */
"50 50 106 2 ",
"   c black",
".  c #1E2227",
"X  c #1B2A26",
"o  c #1E2C29",
"O  c #202327",
"+  c #202329",
"@  c #25292E",
"#  c #262A30",
"$  c #3E3F45",
"%  c #364141",
"&  c #3C4547",
"*  c #474142",
"=  c #494344",
"-  c #45464C",
";  c #494649",
":  c #4F494A",
">  c #534C4D",
",  c #474E51",
"<  c #484F52",
"1  c #564F50",
"2  c #4A525E",
"3  c #575052",
"4  c #5A5354",
"5  c #5F5759",
"6  c #635A5C",
"7  c #535C60",
"8  c #5C5E66",
"9  c #535C69",
"0  c #675E60",
"q  c #586266",
"w  c #5D6068",
"e  c #5B6473",
"r  c #606167",
"t  c #6E6466",
"y  c #63636B",
"u  c #716769",
"i  c #746A6C",
"p  c #796D6F",
"a  c #666771",
"s  c #6A6C75",
"d  c #616B7A",
"f  c #796F71",
"g  c #6E727B",
"h  c #7C7173",
"j  c #70727C",
"k  c #7F787D",
"l  c #817577",
"z  c #837779",
"x  c #85797C",
"c  c #897C7F",
"v  c #677182",
"b  c #6E798B",
"n  c #777A84",
"m  c #717B8D",
"M  c #7C7F89",
"N  c #847F85",
"B  c #8B7E81",
"V  c #768295",
"C  c #7A879B",
"Z  c #7F8CA1",
"A  c #858086",
"S  c #8E8184",
"D  c #918486",
"F  c #94878A",
"G  c #96888B",
"H  c #9A8B8E",
"J  c #838691",
"K  c #828999",
"L  c #8C8E9A",
"P  c #9E8E91",
"I  c #9F9093",
"U  c #99949B",
"Y  c #A39295",
"T  c #A69699",
"R  c #A8979A",
"E  c #AA999C",
"W  c #818FA4",
"Q  c #8290A5",
"!  c #8694AA",
"~  c #8A98AF",
"^  c #9195A1",
"/  c #9A99A4",
"(  c #A39CA4",
")  c #AF9DA0",
"_  c #B09EA1",
"`  c #9FA3B1",
"'  c #93A2BA",
"]  c #A2A1AC",
"[  c #B3A1A4",
"{  c #B7A6A9",
"}  c #B9A7AA",
"|  c #BCAAAD",
" . c #A0A4B2",
".. c #AFABB7",
"X. c #A6AAB8",
"o. c #ACACB9",
"O. c #C1AEB1",
"+. c #C4B1B4",
"@. c #9AAAC4",
"#. c #9FAEC9",
"$. c #B2B5C5",
"%. c #ADBEDB",
"&. c #AFC0DE",
"*. c #B0C1DF",
"=. c #B2C4E1",
"-. c None",
/* pixels */
"-.-.-.-.-.-.-.-.-.-.-.-.-.-.-.-.-.-.-.-.-.-.-.-.-.-.-.-.-.-.-.-.-.-.-.-.-.-.-.-.-.-.-.-.-.-.-.-.-.-.",
"-.-.-.-.-.-.-.-.-.-.-.-.-.-.-.-.-.-.-.-.-.-.-.-.-.-.-.-.-.-.-.-.-.-.-.-.-.-.-.-.-.-.-.-.-.-.-.-.-.-.",
"-.-.-.-.-.-.-.-.-.-.-.-.-.-.-.-.-.-.-.-.-.-.-.-.-.-.-.-.-.-.-.-.-.-.-.-.-.-.-.-.-.-.-.-.-.-.-.-.-.-.",
"-.-.-.-.-.-.-.-.-.-.-.-.-.-.-.-.-.-.-.-.-.-.-.-.-.-.-.-.-.-.-.-.-.-.-.*.*.@.! ! -.-.-.-.-.-.-.-.-.-.",
"-.-.-.-.-.-.-.-.-.-.-.-.-.-.-.-.-.-.-.-.-.-.-.-.-.-.-.-.-.-.-.-.-.-.*.%.%.' W Q ! -.-.-.-.-.-.-.-.-.",
"-.-.-.-.-.-.-.-.-.-.-.-.-.-.-.-.-.-.-.-.-.-.-.-.-.-.-.-.-.-.-.-.-.-.&.%.%.' W Q ! -.-.-.-.-.-.-.-.-.",
"-.-.-.-.-.-.-.-.-.-.-.-.-.-.-.-.-.-.-.-.-.-.-.-.-.-.-.-.-.-.-.-.-.-.%.%.%.' W Q ' =.*.-.-.-.-.-.-.-.",
"-.-.-.-.-.-.-.-.-.-.-.-.-.-.-.-.-.-.-.-.-.-.-.-.-.-.-.-.-.-.-.-.-.-.&.%.%.' W W @.%.%.&.-.-.-.-.-.-.",
"-.-.-.-.-.-.-.-.-.-.-.-.-.-.-.-.-.-.-.-.-.-.-.-.-.-.-.-.-.-.-.-.-.-.*.&.%.' Q Q @.&.*.=.-.-.-.-.-.-.",
"-.-.-.-.-.-.-.-.-.-.-.-.-.-.-.-.-.-.-.-.-.-.-.-.-.-.-.-.-.-.-.-.-.-.#.@.@.! C C Q ~ ~ Z -.-.-.-.-.-.",
"-.-.-.-.-.-.-.-.-.-.-.-.-.-.-.-.-.-.-.-.-.-.-.-.-.-.-.-.-.-.-.-.-.-.! W ! V b b d 9 9 9 9 9 9 -.-.-.",
"-.-.-.-.-.-.-.-.-.-.-.-.-.-.-.-.-.-.-.-.-.-.-.-.-.-.-.-.-.-.-.-.-.-.! W Q V b b e 9 9 9 9 9 9 -.-.-.",
"-.-.-.-.-.-.-.-.-.-.-.-.-.-.-.-.-.-.-.-.-.-.-.-.-.-.-.-.-.-.-.-.-.-.L K K m v v d e e e e e e -.-.-.",
"-.-.-.-.-.-.-.-.-.-.-.-.-.-.-.-.-.-.-.-.-.-.-.-.-.E E E O.+.+.) E E S N N a 9 9 d b b b b b m -.-.-.",
"-.-.-.-.-.-.-.-.-.-.-.-.-.-.-.-.-.-.-.-.-.-.-.-.-.E R E O.+.O.E T T B z z a 9 9 d b b b m m m -.-.-.",
"-.-.-.-.-.-.-.-.-.-.-.-.-.-.-.-.-.-.-.-.-.-.-.-.-._ _ [ O.+.+.[ ) ) D z x 8 2 2 q d d d d d d -.-.-.",
"-.-.-.-.-.-.-.-.-.-.-.-.-.-.-.-.-.-.-.E E E E E _ O.+.+.+.+.+.O.O.| G x x - + @ # @ # # # # # -.-.-.",
"-.-.-.-.-.-.-.-.-.-.-.-.-.-.-.-.-.-.-.E E E E E E O.+.+.+.+.+.+.+.+.G x x * . + + O O O O O + -.-.-.",
"-.-.-.-.-.-.-.-.-.-.-.-.-.-.-.-.-.-.-.E E E E E E { { | +.+.+.+.+.O.G x x - . + + + + + + + + -.-.-.",
"-.-.-.-.-.-.-.-.-.-.-.-.-.-.-.-.E E [ +.O.| E E T z h x | +.+.+.+.O.G z z -.-.-.-.-.-.-.-.-.-.-.-.-.",
"-.-.-.-.-.-.-.-.-.-.-.-.-.-.-.-.E R _ O.+.O.E E Y f i h | +.+.+.+.+.F z x -.-.-.-.-.-.-.-.-.-.-.-.-.",
"-.-.-.-.-.-.-.-.-.-.-.-.-.-.-.-.R E _ +.+.| Y Y P h i l } +.O.+.+.O.F z z -.-.-.-.-.-.-.-.-.-.-.-.-.",
"-.-.-.-.-.-.-.-.-.-.-.-.-.R T R E R _ +.+.[ l h l P I Y ) E E _ ) E x i i -.-.-.-.-.-.-.-.-.-.-.-.-.",
"-.-.-.-.-.-.-.-.-.-.-.-.-.R E E R E _ O.+.[ p i h Y E E E E E E E R x i i -.-.-.-.-.-.-.-.-.-.-.-.-.",
"-.-.-.-.-.-.-.-.-.-.-.-.-.E E E R E [ | | [ h i h T E E E E E R R T l i i -.-.-.-.-.-.-.-.-.-.-.-.-.",
"-.-.-.-.-.-.-.-.-.-.E E { +.O.{ E E I c c S [ [ [ | | | E E R D B B 6 > 1 -.-.-.-.-.-.-.-.-.-.-.-.-.",
"-.-.-.-.-.-.-.-.-.-.E R [ +.+.| R E P i i x +.+.+.+.+.O.E E T B z z 3 * = -.-.-.-.-.-.-.-.-.-.-.-.-.",
"-.-.-.-.-.-.-.-.-.-.R R [ +.+.| R R H i i c | +.+.+.+.O.E E T B z l 4 * = -.-.-.-.-.-.-.-.-.-.-.-.-.",
"-.-.-.-.-.-.-.-.-.-.E E { +.+.E x z c H H P _ ) _ ) [ E B x z 6 4 5 > -.-.-.-.-.-.-.-.-.-.-.-.-.-.-.",
"-.-.-.-.-.-.-.-.-.-.E E [ +.+.R i u h R E E E E E E E Y h i u : * = -.-.-.-.-.-.-.-.-.-.-.-.-.-.-.-.",
"-.-.-.-.-.-.-.-.-.-.E E [ +.+.E i i x R E R E E E R E Y f i i : = = -.-.-.-.-.-.-.-.-.-.-.-.-.-.-.-.",
"-.-.-.-.-.-.-.$.$.$.....( S S H E E [ } | { E E Y F D B 5 4 4 3 -.-.-.-.-.-.-.-.-.-.-.-.-.-.-.-.-.-.",
"-.-.-.-.-.-.-.$.$.$.$.$./ i u S +.+.+.+.+.| E E Y c x h : * = -.-.-.-.-.-.-.-.-.-.-.-.-.-.-.-.-.-.-.",
"-.-.-.-.-.-.-.$.$.$.$.$./ i i S +.+.+.+.+.O.E E Y c x h : = = -.-.-.-.-.-.-.-.-.-.-.-.-.-.-.-.-.-.-.",
"-.-.-.-.-.-.-.$.$.L - - y L L U [ [ [ [ [ E S S c 6 6 6 1 -.-.-.-.-.-.-.-.-.-.-.-.-.-.-.-.-.-.-.-.-.",
"-.-.-.-.-.-.-.$.$.g     $  . .] E E E E E P i i t = = = -.-.-.-.-.-.-.-.-.-.-.-.-.-.-.-.-.-.-.-.-.-.",
"-.-.-.-.-.-.-.$.$.g     $ ` ` ] E E E E E P i i t : * = -.-.-.-.-.-.-.-.-.-.-.-.-.-.-.-.-.-.-.-.-.-.",
"-.-.-.-.-.-.-.X.o.L w 8 n ] ` / A A k i p i 6 5 5 : : -.-.-.-.-.-.-.-.-.-.-.-.-.-.-.-.-.-.-.-.-.-.-.",
"-.-.-.-.-.-.-. .`  . .X. .` ` ^ s s w = * * * * * -.-.-.-.-.-.-.-.-.-.-.-.-.-.-.-.-.-.-.-.-.-.-.-.-.",
"-.-.-.-.-.-.-. .`  . . . . . .^ s s r = = * = = * -.-.-.-.-.-.-.-.-.-.-.-.-.-.-.-.-.-.-.-.-.-.-.-.-.",
"-.-.-.-.-.-.-.7 q g J J J V J M s s a : * = = = -.-.-.-.-.-.-.-.-.-.-.-.-.-.-.-.-.-.-.-.-.-.-.-.-.-.",
"-.-.-.-.-.-.-.o X & s s s s s s s s s -.-.-.-.-.-.-.-.-.-.-.-.-.-.-.-.-.-.-.-.-.-.-.-.-.-.-.-.-.-.-.",
"-.-.-.-.-.-.-.o o & s s s s s s s s g -.-.-.-.-.-.-.-.-.-.-.-.-.-.-.-.-.-.-.-.-.-.-.-.-.-.-.-.-.-.-.",
"-.-.-.-.-.-.-.-.-.% < < , , , : , < < -.-.-.-.-.-.-.-.-.-.-.-.-.-.-.-.-.-.-.-.-.-.-.-.-.-.-.-.-.-.-.",
"-.-.-.-.-.-.-.-.-.-.o o o o X o o o o -.-.-.-.-.-.-.-.-.-.-.-.-.-.-.-.-.-.-.-.-.-.-.-.-.-.-.-.-.-.-.",
"-.-.-.-.-.-.-.-.-.-.o o o o o o o o o -.-.-.-.-.-.-.-.-.-.-.-.-.-.-.-.-.-.-.-.-.-.-.-.-.-.-.-.-.-.-.",
"-.-.-.-.-.-.-.-.-.-.o o o o o o o o -.-.-.-.-.-.-.-.-.-.-.-.-.-.-.-.-.-.-.-.-.-.-.-.-.-.-.-.-.-.-.-.",
"-.-.-.-.-.-.-.-.-.-.-.-.-.-.-.-.-.-.-.-.-.-.-.-.-.-.-.-.-.-.-.-.-.-.-.-.-.-.-.-.-.-.-.-.-.-.-.-.-.-.",
"-.-.-.-.-.-.-.-.-.-.-.-.-.-.-.-.-.-.-.-.-.-.-.-.-.-.-.-.-.-.-.-.-.-.-.-.-.-.-.-.-.-.-.-.-.-.-.-.-.-.",
"-.-.-.-.-.-.-.-.-.-.-.-.-.-.-.-.-.-.-.-.-.-.-.-.-.-.-.-.-.-.-.-.-.-.-.-.-.-.-.-.-.-.-.-.-.-.-.-.-.-."
};
