/* XPM */
static char *ca117b3f223f4b6b9fd0a066e5ed248cJGnRPRmsxQCzMbmY[] = {
/* columns rows colors chars-per-pixel */
"50 50 205 2 ",
"   c #0A0A0C",
".  c #121315",
"X  c #00241D",
"o  c #012B1E",
"O  c #04321F",
"+  c #0A331F",
"@  c #0D3B1F",
"#  c #113E1F",
"$  c #002721",
"%  c #022C22",
"&  c #1E2227",
"*  c #1B2927",
"=  c #162B28",
"-  c #1D2C29",
";  c #043423",
":  c #093522",
">  c #063B25",
",  c #0A3D23",
"<  c #073A28",
"1  c #0C3D28",
"2  c #1D3326",
"3  c #113E22",
"4  c #15342B",
"5  c #143F2D",
"6  c #153936",
"7  c #193B33",
"8  c #212227",
"9  c #212A26",
"0  c #222F2C",
"q  c #282C32",
"w  c #2B3137",
"e  c #2B3933",
"r  c #0F4218",
"t  c #14441E",
"y  c #19471E",
"u  c #164B1D",
"i  c #1B4C1E",
"p  c #1E521E",
"a  c #214E1B",
"s  c #21541E",
"d  c #255B1E",
"f  c #2A5D1C",
"g  c #2A621A",
"h  c #2C641E",
"j  c #2E691E",
"k  c #31661B",
"l  c #316A1D",
"z  c #386C19",
"x  c #074127",
"c  c #0C4325",
"v  c #0E4927",
"b  c #0B4428",
"n  c #0E4929",
"m  c #124522",
"M  c #144B24",
"N  c #1A4D21",
"B  c #15432C",
"V  c #1B4528",
"C  c #124D29",
"Z  c #165125",
"A  c #1B5323",
"S  c #1D5A26",
"D  c #155229",
"F  c #1B5329",
"G  c #1E5C29",
"H  c #164332",
"J  c #1B4534",
"K  c #1D4B35",
"L  c #194339",
"P  c #1C4C3A",
"I  c #214626",
"U  c #214D2E",
"Y  c #215620",
"T  c #225C22",
"R  c #2B5D21",
"E  c #28582A",
"W  c #315E2D",
"Q  c #244D32",
"!  c #3C423C",
"~  c #245334",
"^  c #275737",
"/  c #325C36",
"(  c #266122",
")  c #296421",
"_  c #316325",
"`  c #35652D",
"'  c #2E6337",
"]  c #356936",
"[  c #44443F",
"{  c #473F42",
"}  c #1E4840",
"|  c #2C4D41",
" . c #3D4848",
".. c #29564A",
"X. c #355944",
"o. c #444442",
"O. c #494244",
"+. c #454B4D",
"@. c #484948",
"#. c #4D4A4B",
"$. c #534C4D",
"%. c #464D51",
"&. c #484D55",
"*. c #4C5D5A",
"=. c #5B5355",
"-. c #585559",
";. c #635B5C",
":. c #40714C",
">. c #63615E",
",. c #495661",
"<. c #575D65",
"1. c #545D6A",
"2. c #685E61",
"3. c #5B6369",
"4. c #5B6473",
"5. c #5F6979",
"6. c #686565",
"7. c #64656D",
"8. c #716769",
"9. c #746A6C",
"0. c #786D6F",
"q. c #76726E",
"w. c #666971",
"e. c #6A6C75",
"r. c #626C7B",
"t. c #6C6E78",
"y. c #776E71",
"u. c #796E70",
"i. c #68727B",
"p. c #7D7275",
"a. c #7A757B",
"s. c #817477",
"d. c #837679",
"f. c #86797C",
"g. c #897C7E",
"h. c #83847E",
"j. c #898A7B",
"k. c #666F80",
"l. c #6A7587",
"z. c #6C7689",
"x. c #6E798A",
"c. c #7A7B84",
"v. c #857F85",
"b. c #8B7E81",
"n. c #68828B",
"m. c #7D838D",
"M. c #778697",
"N. c #79859A",
"B. c #7E8CA0",
"V. c #8E8184",
"C. c #888389",
"Z. c #918487",
"A. c #948689",
"S. c #958B8C",
"D. c #9A8B8E",
"F. c #98918C",
"G. c #828591",
"H. c #888B97",
"J. c #968E91",
"K. c #9D8E91",
"L. c #8A949A",
"P. c #9D9193",
"I. c #95929B",
"U. c #A08F92",
"Y. c #A39396",
"T. c #A69598",
"R. c #A8979A",
"E. c #A59B9C",
"W. c #AB999C",
"Q. c #808FA3",
"!. c #8391A6",
"~. c #8693A9",
"^. c #8997A9",
"/. c #9496A3",
"(. c #9599A3",
"). c #9A9DAB",
"_. c #8C9EB3",
"`. c #A19DA6",
"'. c #AE9EA1",
"]. c #B09EA1",
"[. c #9CA2AE",
"{. c #8AA4B4",
"}. c #9EA3B0",
"|. c #97AAB2",
" X c #94A4BC",
".X c #B3A1A4",
"XX c #B7A5A8",
"oX c #B9A7AA",
"OX c #BCAAAD",
"+X c #A2A5B4",
"@X c #AAAAB7",
"#X c #BFADB0",
"$X c #C1AEB1",
"%X c #C3B0B3",
"&X c #C8B3B7",
"*X c #97AEC1",
"=X c #9AACC4",
"-X c #9CB2C6",
";X c #A8B3C3",
":X c #B3B5C5",
">X c #BABACD",
",X c #A7B9D4",
"<X c #ADBEDC",
"1X c #B0C0DF",
"2X c #B1C1E0",
/* pixels */
"M T F b b c ; % M T , ; ; ; ; > ; ; v G D : % ; ; > : ; ; ; ; b D G Z v p # v G F x % % ; x ; c p , ",
") ( M ; n G u % % : M T D b F T D D h g , ; % % > D G v ; % > ; : s h c X o u h Z ; % > c v > ; > c ",
"m c > % : s l i % t h g v c T d c g ) M ; % % % : d d c ; n c ; % : D P 6 6 K F : $ % c ( T c v C c ",
", c D M : c d h + a d > % ; , : : @ > ; % % C C v + : c T h C ; ; ; ..{.=X^.B.n.} % $ , A k d N ( ( ",
"d , A ) T c , y ; > c ; o x F D c : ; > > > M ( ) , : d l A > ; v ' {.2X,X=X~.~.n.B o % > S s O M j ",
"y % : i j i X > > c D c % ; A j M : N T C c % @ h f , u p ; % ; > ] -X2X,X XB.!.B.:.^ % o , v c c M ",
"M , % % i u : > > x x x > > c M > @ d p > ; % o m A D v % % ; % % ^ =X1X,X X!.!.{.-X|...; D ) F , > ",
"T ) m % : > x > Z D n ; ; : v F c @ ; O , D F > : d T , ; c c % X P =X2X,X X!.!.=X<X2X{.P u d : % % ",
"c N v c c > ; @ h g > ; ; ; ; p l A % $ p j M ; c A m % , D ( C o L *X1X,X XQ.!.=X,X<X-X' u > ; ; ; ",
"> : M ( D ; ; > M , ; c C c ; > d k : $ m C : , D v ; ; < , d _ u P _.=X X!.N.N.Q.~.~.n.' _ Y c v n ",
": M j f : ; ; x ; : p ) C , > ; , p > ; ; > M f S c ; , D C v d g P N.~.!.M.x.x.r.4.4.1.,.<.*.F ) T ",
"; s g @ % ; S F : p l S , ; b S M : ; b , , j h @ % X u h u ; O r 6 M.B.B.M.x.l.4.1.1.1.1.1.,.B p , ",
"; m v ; % o t h A u A x ; % > d h @ i T v , f m % 4 7 Q ^ K 7 7 H | m.H.N.x.k.k.5.4.4.4.4.4.1.n , ; ",
"$ % ; ; o % ; M , , b ; ; % ; c M , d A % % 3 > J h.S.S.E.E.E.P.S.A.V.v.v.t.1.1.5.l.z.z.l.x.i.' M > ",
"c F C : ; : b 1 : > D M : X o ; > > > o % % o O J J.W.].$X&X%X].W.T.b.f.a.7.1.1.5.l.x.x.x.x.i.W u > ",
") ) C c D S v x b v A h A ; % > A S 1 H K K J H | P..X.XOX%X#X.X].W.Z.s.a.2.&.&.,.4.4.4.4.4.1.H O % ",
"u M x d j p : ; M ( A A l t , d l M J h.D.F.F.F.P.oX$X$X%X%X%X#X#XoXA.f.p.#.q q w w w w w w q 1 > ; ",
"x ; > f ( c > : : p d m M @ c g p O H S.].W.W.W.].#X%X%X%X%X%X%X%XOXD.g.a.O.8 8 8 8 8 8 8 8 & : D D ",
"; x x > x c S F % : c x : o o v ~ K | P.].R.R.R.W.'..XXX$X%X%X%X%XOXD.f.u.+.- & 9 9 & * 9 9 * y h T ",
"> D d M > ; m j d c > v > > m / h.F.P.OXOXoXW.W.Y.b.s.V.XX%X%X%X%XOXS.f.p.W @ $ 3 3 3 f s 3 c l s c ",
"x v d d > % % M k p A ( D c p W S.'..XOX%XOXW.W.Y.p.8.s..X%X%X%X%XOXD.f.q.V ; ; > > @ d v x c t : % ",
"; b v > % % % ; m d j T m K F X.S.E.].OX%XoXY.D.A.s.u.g..X#XOX$X%XoXA.d.9.4 % v F c : > x ; c C c O ",
"; C S c ; , F F c p s : H h.S.F.T.W.].%X%X.Xg.p.f.A.D.Y.W.W.W.].].T.f.u.6.< O c ( h M : ; % , ( h i ",
"$ + f h M , u g i + v c H S.W.W.T.T..XOX%XW.p.8.p.U.R.W.W.W.R.W.R.T.f.9.6.J c v M h k , x c c c d z ",
"% % , h d > : c c u ` / | S.].E.R.R.W.XXXXR.g.p.g.Y.W.W.W.R.R.T.Y.U.s.8.>._ p c : c s c A ) A ; : f ",
"S M : : t M F v ; U j.S.P.OX#X.XR.R.Y.V.V.A.R.W.W.oXoXoXW.W.Y.A.b.g.;.=.#.E c % % > @ > c A A > ; , ",
"T j # $ A j T c % 7 S.].XX#X%XoXW.R.A.p.9.g.oX%X%X%X%XOXW.W.Y.Z.d.s.=.O.[ B > ; > A G x ; : , m C ; ",
", M , 3 k d > ; o K S.W..X%X%XXXT.Y.A.p.u.V..X$X%X$X$XoXR.Y.K.g.p.0.=.[ [ T m @ d j M ; % ; A ( n ; ",
"; c x v p , % % u ` F.W..X%X$XW.g.f.g.A.A.Y.W..X].]..XR.Z.g.s.;.;.=.@.5 N k f t f A c : % i l A ; ; ",
"; C G Z > > > t k ` F.W..X%X%XY.u.9.s.Y.R.R.R.W.W.R.R.Y.s.9.8.$.O.[ V O % m s , m S S > : T Y : ; > ",
"; @ f j M > > Q ` X.P.W..XoXOXY.s.u.g.T.W.R.R.W.R.Y.Y.D.u.8.6.$.O.! 1 < ; % ; % m j M % % < , , n D ",
"; % , h g O L L.}.[.@X@XE.A.Z.D.Y.R.W.oXoXXXW.R.Y.A.Z.f.;.=.=.@.5 : b D C ; ; > , m : o , D v > C ) ",
"> > > v u ; P }.>X:X:X:X/.y.9.Z.OX%X#X%X%XOX'.R.U.b.f.u.$.O.o.4 ; ; ; M g D , > v D v M h S @ % c T ",
"G p v ; > c ^ |.>X@X@X}.I.y.y.Z.OX%X%X#X#XoXW.T.K.f.s.9.$.[ e 5 c 1 : , A m : M h d x t S @ % ; > > ",
"p j M O A d ~ [.:XH.-.%.7.H.H.I.'..X.X.X.XR.Z.V.s.2.;.=.@.= : N ) D > > > ; + j h c % > x x v v > ; ",
"O v c d j u L }.;Xe..   +.(.+X`.W.W.W.W.W.J.u.9.6.$.O.@.U % y k T c ; ; > > @ Y c c C D > : T ) m o ",
"> ; c d N O P }.:Xe..   %./.+X`.T.T.Y.Y.Y.A.9.8.2.$.{ ! f p s s , % ; ; > n > o : A h M % % c d M : ",
"F > : v v ; J ^.@XH.7.<.c./.}./.C.C.a.y.u.8.;.=.=.O. .= i l s % % > c A T D > : o , N O % % ; : c T ",
"@ ; u ( F O J L.+X[.).[.[.+X}.I.a.w.6.$.O.O.O.O.o.U F ; % N i : : x A l d C D b % 1 v , o ; ; n R j ",
"$ % i T c @ ` L.).).[.[.[.).).H.e.w.<.O.{ O.O.O.! R D c , ; > > ; ; i s M g T c t h S c : > x M f m ",
": c , > , p ` *.1.t.m.G.G.M.G.c.e.e.7.@.! [ o.! I i c M G D ; ; c c 1 : , s : : k h c m S F > % % ; ",
"> D T i > @ t - q %.w.t.t.t.t.t.e.e.7.K : V R f + O c h h v ; % ; D T N c > % m f 1 % O s l i : v D ",
"M : T j i % % = -  .7.w.7.w.w.7.w.e.3.5 ; ; u j t % t j u x : ; ; > s j p % % , v ; % ; v T g c F h ",
"N o , d A , D A m e %.&.%.%.%.#.%.%. .1 > ; ; c v , : @ O , D F c ; + s f : % % M F c ; > v M , : t ",
"1 , ; : > > F j i 3 0 0 0 0 - 0 0 0 0 N G c > M T F v : : p j i ; ; < c m O % % , h d : , T F < $ % ",
"g C % $ ; ; O @ N d 2 - - - * - - - 2 j p > ; A ( c ; > 3 g p : % , D v : % c v , @ c , h h m > v C ",
"Y % $ , D M ; $ i f 2 * * - 2 - * = N A > o % % : ; > ; o @ x ; c d T , % i h A ; ; ; M f M % m ) ) ",
", % , ) h c % : m m 1 1 ; ; Y R p 1 c : % > > % % M G M ; ; x > @ s , % # k T O % ; v v @ ; > M s M ",
"% ; f k # % ; c v > v S A , c d l m ; ; ; n ( S + : p j i ; : ; > , > c M s : % ; b b G S , c D , ; ",
"% ; s m $ $ % M ) S , N j p > > t O % ; x > p j m $ : d k o o v D b : S ) M % ; C n ; A j t c ( p ; "
};
