/* XPM */
static char *result[] = {
/* columns rows colors chars-per-pixel */
"50 50 112 2 ",
"   c #292823",
".  c #2F2D28",
"X  c #34322D",
"o  c #38362F",
"O  c #393731",
"+  c #3C3B34",
"@  c #3F3D38",
"#  c #413F37",
"$  c #43423A",
"%  c #49473E",
"&  c #4B493F",
"*  c #4D4B42",
"=  c #4C4A4A",
"-  c #514E45",
";  c #525046",
":  c #56544A",
">  c #59574C",
",  c #5B594E",
"<  c #545351",
"1  c #5E5C51",
"2  c #5E5D5A",
"3  c #605E53",
"4  c #605F59",
"5  c #646256",
"6  c #63625C",
"7  c #686659",
"8  c #6D6B5D",
"9  c #706E5F",
"0  c #666461",
"q  c #696763",
"w  c #6D6B62",
"e  c #69676E",
"r  c #6E6D69",
"t  c #716F60",
"y  c #747263",
"u  c #797667",
"i  c #72716C",
"p  c #797768",
"a  c #7D7B6B",
"s  c #6F6F74",
"d  c #747373",
"f  c #77767C",
"g  c #78777B",
"h  c #7C7C7C",
"j  c #807E6D",
"k  c #817F71",
"l  c #858372",
"z  c #898775",
"x  c #8B8976",
"c  c #81807F",
"v  c #8E8C79",
"b  c #918F7C",
"n  c #93917E",
"m  c #7D7C82",
"M  c #828184",
"N  c #898886",
"B  c #858589",
"V  c #88868F",
"C  c #8C8B8D",
"Z  c #979581",
"A  c #989782",
"S  c #9B9A85",
"D  c #91908F",
"F  c #9F9D88",
"G  c #8D8C93",
"H  c #918F98",
"J  c #949494",
"K  c #95949A",
"L  c #98979E",
"P  c #9D9D9D",
"I  c #A19F89",
"U  c #A4A38D",
"Y  c #A8A78F",
"T  c #A9A791",
"R  c #ADAA94",
"E  c #B1AF98",
"W  c #B8B69D",
"Q  c #9997A1",
"!  c #9D9CA2",
"~  c #A19FA9",
"^  c #A5A5A5",
"/  c #A8A7A7",
"(  c #A8A8A7",
")  c #A5A4AB",
"_  c #ABABAB",
"`  c #ABAAB2",
"'  c #AFADB8",
"]  c #B2B2B2",
"[  c #B3B2BA",
"{  c #BBBBBB",
"}  c #C5C4A9",
"|  c #C8C6AB",
" . c #D4D2B5",
".. c #B8B7C0",
"X. c #BDBCC3",
"o. c #C3C3C3",
"O. c #C4C2CA",
"+. c #C8C7CC",
"@. c #CBCBCB",
"#. c #CDCDD3",
"$. c #D4D3D4",
"%. c #D3D3D8",
"&. c #D8D7DC",
"*. c #DDDDDE",
"=. c #DFE0DF",
"-. c #DEDEE1",
";. c #E2E2E3",
":. c #E5E5E8",
">. c #EBEBEC",
",. c #F4F4F5",
"<. c #FEFEFE",
"1. c None",
/* pixels */
"1.1.1.1.1.1.1.1.1.1.1.1.1.1.1.1.1.1.1.1.1.1.1.8 T  . .R T Z Z 7 1.1.1.1.1.1.1.1.1.1.1.1.1.1.1.1.1.1.",
"1.1.1.1.1.1.1.1.1.1.1.1.1.1.1.1.1.1.1.1.1.- u I n a j 8 8 I T 5 v 1.1.1.1.1.1.1.1.1.1.1.1.1.1.1.1.1.",
"1.1.1.1.1.1.1.1.1.1.1.1.1.1.1.1.1.1.1.3 U n 8 j p u p 9 8 7 8 x } T F 1.1.1.1.1.1.1.1.1.1.1.1.1.1.1.",
"1.1.1.1.1.1.1.1.1.1.1.1.1.1.1.1.1.1.7 U R A , a a y p y t 7 : v n a v l 1.1.1.1.1.1.1.1.1.1.1.1.1.1.",
"1.1.1.1.1.1.1.1.1.1.1.1.1.1.1.1.1., W n a l l > y u u 8 7 1 > U u p p l > 1.1.1.1.1.1.1.1.1.1.1.1.1.",
"1.1.1.1.1.1.1.1.1.1.1.1.1.1.1.1.j 7 v a 9 a x % 5 > : : > * , x 8 u p : u 1.1.1.1.1.1.1.1.1.1.1.1.1.",
"1.1.1.1.1.1.1.1.1.1.1.1.1.1.1.a } u 5 a y t l 5 * 2 2 6 : + 8 A u y y 3 F S 1.1.1.1.1.1.1.1.1.1.1.1.",
"1.1.1.1.1.1.1.1.1.1.1.1.1.1.3 S b 9 ; u 8 3 ; r g C D C m d > 8 8 t , a z Z l 1.1.1.1.1.1.1.1.1.1.1.",
"1.1.1.1.1.1.1.1.1.1.1.1.1.% z x u t , 1 3 ; c J J J J J J J D 7 > 5 8 Z y p n 8 1.1.1.1.1.1.1.1.1.1.",
"1.1.1.1.1.1.1.1.1.1.1.1.1.y I y y y 5 ; 0 L P P P P P P P P ! P h : a v y u a v 1.1.1.1.1.1.1.1.1.1.",
"1.1.1.1.1.1.1.1.1.1.1.1.o t l 8 y 8 1 d ( ( ( ( _ ( ( ^ ^ ^ ( ( ( D 2 7 8 9 8 n 5 1.1.1.1.1.1.1.1.1.",
"1.1.1.1.1.1.1.1.1.1.1.1.u % , 8 8 5 2 P ] ] ] ] ] ] ] ] ] ] ] ] ] _ c 1 8 8 1 3 * 1.1.1.1.1.1.1.1.1.",
"1.1.1.1.1.1.1.1.1.1.1.1.U l & > 1 1 D ] ..X.{ { { { { X.{ { { { ..[ ( i 1 5 , A A 1.1.1.1.1.1.1.1.1.",
"1.1.1.1.1.1.1.1.1.1.1.9 n A n : & h ( ] | o.o.o.o.o.o.| o.o.o.o.| { ] ^ 2 : U S b a 1.1.1.1.1.1.1.1.",
"1.1.1.1.1.1.1.1.1.1.1.l z y U l 6 ^ ] { @.@.$.@.@.@.$.@.@.#.@.@.@.+.{ ] D 3 v u n a 1.1.1.1.1.1.1.1.",
"1.1.1.1.1.1.1.1.1.1.1.I a y u t c ( { o.$.$.&.$.&.&.$.$.&.$.$.$.$.@.O.{ _ 5 8 p j F 1.1.1.1.1.1.1.1.",
"1.1.1.1.1.1.1.1.1.1.1.R a y p 6 P _ { @.*.=.=.=.=.=.=.=.=.=.=.=.=.$.$.| { B 3 u 8 I 8 1.1.1.1.1.1.1.",
"1.1.1.1.1.1.1.1.1.1., n u 8 5 7 ^ { @.$.;.>.>.>.>.>.:.>.>.>.>.:.:.=.$.@.o.J ; 8 5 z z 1.1.1.1.1.1.1.",
"1.1.1.1.1.1.1.1.1.1.p > > , 1 d _ { @.=.>.,.,.,.,.,.,.>.,.>.,.,.,.>.*.$.@._ 4 , : 5 9 1.1.1.1.1.1.1.",
"1.1.1.1.1.1.1.1.1.1.n n * $ $ D ] o.$.:.,.,.<.<.<.,.<.<.<.<.<.,.,.,.;.*.@.o.0 + y R l 1.1.1.1.1.1.1.",
"1.1.1.1.1.1.1.1.1.1.n z U y @ J { o.$.>.,.<.<.<.<.<.<.<.<.<.<.<.<.,.>.*.$.+.q 8 R A j > 1.1.1.1.1.1.",
"1.1.1.1.1.1.1.1.1.1.S p l l 0 ^ ] o.$.:.,.<.<.<.<.<.<.<.<.<.<.<.<.,.>.=.$.O.^ a l u y , 1.1.1.1.1.1.",
"1.1.1.1.1.1.1.1.1.1.A t u 1 6 ^ ] o.$.:.,.<.<.<.<.<.<.<.<.<.<.<.<.,.>.=.$.o./ p j y y > 1.1.1.1.1.1.",
"1.1.1.1.1.1.1.1.1.1.U u p 7 q ^ ] o.$.:.,.<.<.<.<.<.<.<.<.<.<.<.<.,.>.=.$.+./ k p y 8 , 1.1.1.1.1.1.",
"1.1.1.1.1.1.1.1.1.1.S 5 5 5 0 ^ ] o.$.;.,.<.<.<.<.<.<.<.<.<.<.<.<.,.>.=.$.@./ l a 8 5 * 1.1.1.1.1.1.",
"1.1.1.1.1.1.1.1.1.1.x 3 5 : 6 ^ ] o.$.;.,.<.<.<.<.<.<.<.<.<.<.<.<.<.>.*.$.o./ a j 8 : * 1.1.1.1.1.1.",
"1.1.1.1.1.1.1.1.1.1.5 * * $ 6 ^ ] | $.;.,.<.<.<.<.<.<.<.<.<.<.<.<.,.>.*.$.o.( 3 : & # $ 1.1.1.1.1.1.",
"1.1.1.1.1.1.1.1.1.1.v n v 5 0 ! [ X.$.;.,.<.<.<.<.<.<.<.<.<.<.<.<.,.>.=.$.@._ 5 n x z : 1.1.1.1.1.1.",
"1.1.1.1.1.1.1.1.1.1.E n S 8 6 ^ ] o.#.=.,.<.<.<.<.<.<.<.<.<.<.<.<.,.>.=.$.o.( l I v v 7 1.1.1.1.1.1.",
"1.1.1.1.1.1.1.1.1.1.F 8 t 3 0 P ` o.#.;.>.<.<.<.<.<.<.<.<.<.<.<.<.,.>.;.$.@./ a u y u , 1.1.1.1.1.1.",
"1.1.1.1.1.1.1.1.1.1.n t 8 1 0 ! ' | $.=.,.<.<.<.<.<.<.<.<.<.<.<.<.,.>.*.$.+./ l l y y , 1.1.1.1.1.1.",
"1.1.1.1.1.1.1.1.1.1.n 5 5 7 0 P ] { $.=.,.<.<.<.<.<.<.<.<.<.<.<.<.,.>.=.$.+./ l z 8 7 ; 1.1.1.1.1.1.",
"1.1.1.1.1.1.1.1.1.1.x > 8 8 6 ^ _ | #.-.,.<.<.<.<.<.<.<.<.<.<.<.<.,.>.*.$.o.( a p 5 3 > 1.1.1.1.1.1.",
"1.1.1.1.1.1.1.1.1.1.y * , ; 2 P _ { #.-.>.<.<.<.<.<.<.<.<.<.<.<.<.<.>.*.$.+.( 5 3 ; ; & 1.1.1.1.1.1.",
"1.1.1.1.1.1.1.1.1.1.7 7 8 * 6 P _ o.@.=.,.<.<.<.<.<.<.<.<.<.<.<.<.<.>.=.$.+.( > 8 7 5 % 1.1.1.1.1.1.",
"1.1.1.1.1.1.1.1.1.1.E U U 8 6 P ] { #.*.>.<.<.<.<.<.<.<.<.<.<.<.<.,.>.=.$.+.( l Y U A 1 1.1.1.1.1.1.",
"1.1.1.1.1.1.1.1.1.1.A y u 1 2 P _ | #.*.>.<.<.<.<.<.<.<.<.<.<.<.<.,.>.=.$.@.( l a 8 9 ; 1.1.1.1.1.1.",
"1.1.1.1.1.1.1.1.1.1.A w y 5 6 P _ { #.-.>.<.<.<.<.<.<.<.<.<.<.<.<.<.>.=.$.@./ l l p y ; 1.1.1.1.1.1.",
"1.1.1.1.1.1.1.1.1.1.S u 7 1 6 L _ { @.*.,.<.<.<.<.<.<.<.<.<.<.<.<.,.>.=.$.@./ a j y 8 & 1.1.1.1.1.1.",
"1.1.1.1.1.1.1.1.1.1.v 8 7 5 2 P _ { @.*.>.,.<.<.<.<.<.<.<.<.<.<.<.,.>.;.$.o./ a a 5 1 * 1.1.1.1.1.1.",
"1.1.1.1.1.1.1.1.1.1.z > 1 * 2 P ( { @.*.>.<.<.<.<.<.<.<.<.<.<.<.<.,.>.;.$.@./ u y 3 ; * 1.1.1.1.1.1.",
"1.1.1.1.1.1.1.1.1.1.> * * $ 2 J / { @.$.:.,.<.<.<.,.<.<.<.,.<.<.<.,.:.*.#.o./ = * - $ @ 1.1.1.1.1.1.",
"1.1.1.1.1.1.1.1.1.1.U U U u 6 J ^ ] o.$.;.,.,.,.,.,.,.,.,.,.,.,.,.>.=.%.@.o.^ a U A n * 1.1.1.1.1.1.",
"1.1.1.1.1.1.1.1.1.1.l , 5 , 2 J ~ ` { +.*.:.>.>.>.>.>.>.>.>.>.:.>.:.*.@.o.{ P p 8 > > $ 1.1.1.1.1.1.",
"1.1.1.1.1.1.1.1.1.1.u ; , ; 4 C J / [ o.#.-.:.-.:.:.;.:.-.-.:.-.:.*.#.+.{ ] K y 8 1 - + 1.1.1.1.1.1.",
"1.1.1.1.1.1.1.1.1.1.8 * * * 2 B J ~ _ { O.#.-.-.&.&.&.&.-.-.-.-.&.%.+.X.[ _ G w 5 , & X 1.1.1.1.1.1.",
"1.1.1.1.1.1.1.1.1.1.5 $ $ $ : m V K ~ ` X.+.#.#.#.#.#.#.#.#.#.#.#.+.X.[ ` ! C w > & $ X 1.1.1.1.1.1.",
"1.1.1.1.1.1.1.1.1.1.5 O + + = f M G Q ~ ..X.O.O.X.O.O.O.O.X.O.X.O.X.[ _ ^ Q M 5 * o + . 1.1.1.1.1.1.",
"1.1.1.1.1.1.1.1.1.1.$ . O X = s f B H Q ` ........................[ ` ~ Q H m * @ X X   1.1.1.1.1.1.",
"1.1.1.1.1.1.1.1.1.1.o o O o = e s m V K ! ` ' ' ' ' ' ' ' ' ' ' ' ` ~ Q H V f O . X X X 1.1.1.1.1.1."
};
