/* XPM */
static char *result[] = {
/* columns rows colors chars-per-pixel */
"50 50 223 2 ",
"   c #362924",
".  c #3D2B23",
"X  c #3D2E2A",
"o  c #332C27",
"O  c #35332D",
"+  c #3A332C",
"@  c #393631",
"#  c #3D3B34",
"$  c #422E26",
"%  c #402E28",
"&  c #44332B",
"*  c #4A352D",
"=  c #42392F",
"-  c #4E392D",
";  c #523C2E",
":  c #593F2E",
">  c #433532",
",  c #443A34",
"<  c #4C3B33",
"1  c #453D3B",
"2  c #4D3D38",
"3  c #543D33",
"4  c #5A3F35",
"5  c #533F39",
"6  c #434037",
"7  c #4D4036",
"8  c #46443B",
"9  c #49443C",
"0  c #4C493F",
"q  c #544236",
"w  c #5B4335",
"e  c #54423B",
"r  c #5B433B",
"t  c #544A3D",
"y  c #5D4B3C",
"u  c #644835",
"i  c #62463D",
"p  c #644A3D",
"a  c #674A36",
"s  c #64513C",
"d  c #6F5139",
"f  c #76553D",
"g  c #4D4B43",
"h  c #4C4541",
"j  c #5A4641",
"k  c #534D43",
"l  c #5C4A44",
"z  c #544E49",
"x  c #574A48",
"c  c #545146",
"v  c #555349",
"b  c #59564C",
"n  c #5B594E",
"m  c #5F5444",
"M  c #5E5C51",
"N  c #5D5C57",
"B  c #594F50",
"V  c #654B43",
"C  c #6B4E41",
"Z  c #694E48",
"A  c #604741",
"S  c #625344",
"D  c #6C5344",
"F  c #63554C",
"G  c #6B524B",
"H  c #6D5B4C",
"J  c #69594A",
"K  c #725546",
"L  c #725947",
"P  c #7E5B41",
"I  c #735649",
"U  c #745A4A",
"Y  c #795F4C",
"T  c #615E53",
"R  c #6D5B54",
"E  c #625B5C",
"W  c #6C5D5A",
"Q  c #655552",
"!  c #745B51",
"~  c #795D54",
"^  c #7B624C",
"/  c #77634E",
"(  c #646255",
")  c #65645A",
"_  c #69665A",
"`  c #6D6B5D",
"'  c #746456",
"]  c #7A6355",
"[  c #74635C",
"{  c #7D635B",
"}  c #706E5F",
"|  c #7A6A5C",
" . c #7F6A50",
".. c #6A6964",
"X. c #746562",
"o. c #726E61",
"O. c #7C6D62",
"+. c #786965",
"@. c #747263",
"#. c #797566",
"$. c #79756A",
"%. c #7D7A6A",
"&. c #74716B",
"*. c #7C7572",
"=. c #7C767C",
"-. c #825E43",
";. c #866246",
":. c #886247",
">. c #8A654A",
",. c #8C694D",
"<. c #87684D",
"1. c #856C55",
"2. c #846C59",
"3. c #846854",
"4. c #8C735C",
"5. c #8B765A",
"6. c #92755E",
"7. c #816B64",
"8. c #837264",
"9. c #8D7663",
"0. c #8C7962",
"q. c #867069",
"w. c #817E6E",
"e. c #8D7C68",
"r. c #947662",
"t. c #957B62",
"y. c #9B7D66",
"u. c #937C6A",
"i. c #9D7E69",
"p. c #847A74",
"a. c #857D7B",
"s. c #847974",
"d. c #83806F",
"f. c #9B8266",
"g. c #9D856A",
"h. c #9A866B",
"j. c #858372",
"k. c #888675",
"l. c #8A8977",
"z. c #8E8C79",
"x. c #8A827B",
"c. c #918F7C",
"v. c #9C8678",
"b. c #93917E",
"n. c #A68B6D",
"m. c #A58A6C",
"M. c #A48B7A",
"N. c #A78C79",
"B. c #AE987B",
"V. c #AB947A",
"C. c #B39C7C",
"Z. c #B19679",
"A. c #868382",
"S. c #8C8484",
"D. c #8D8B89",
"F. c #8B8786",
"G. c #928B8E",
"H. c #9D8D82",
"J. c #969581",
"K. c #999783",
"L. c #9C9A86",
"P. c #9F9D88",
"I. c #92928F",
"U. c #959393",
"Y. c #9B9598",
"T. c #8E8E97",
"R. c #A09F89",
"E. c #AE9C8C",
"W. c #A99688",
"Q. c #B39985",
"!. c #B39D8C",
"~. c #B19681",
"^. c #A69C97",
"/. c #B09E91",
"(. c #A18F84",
"). c #A4A28C",
"_. c #A8A68F",
"`. c #ABAA93",
"'. c #A9A39E",
"]. c #A5A09A",
"[. c #BBA694",
"{. c #B7A698",
"}. c #B4B29A",
"|. c #9F9BA4",
" X c #A9A6A7",
".X c #B4ACAC",
"XX c #B5AAA9",
"oX c #BBB2AC",
"OX c #BDB6B4",
"+X c #BDBBBC",
"@X c #B6B4B6",
"#X c #B3AEB5",
"$X c #C1AB99",
"%X c #C0A895",
"&X c #C2BCBB",
"*X c #C1B9B4",
"=X c #CBC3BC",
"-X c #C7BFC0",
";X c #C6C3C3",
":X c #CBC6C4",
">X c #CCCBCA",
",X c #CAC7C8",
"<X c #D1CBC5",
"1X c #D2CDCC",
"2X c #D8D4CE",
"3X c #D3CFD0",
"4X c #D4D3D3",
"5X c #DBD6D5",
"6X c #DBD9D8",
"7X c #E2DEDC",
"8X c #E0DAD7",
"9X c #E6E0DE",
"0X c #E1DEE0",
"qX c #E3E2E2",
"wX c #E9E6E6",
"eX c #ECEAEA",
"rX c #F2ECE5",
"tX c #F3EEE9",
"yX c #F6F3EE",
"uX c #F9F6F2",
"iX c #FDFCFB",
"pX c #F7F5F5",
"aX c None",
/* pixels */
"aXaXaXaXaXaXaXaXaXaXaXaXaXaXaXaXaXaXaXaXaXaXaXaXaXaXaXaXaXaXaXaXaXaXaXaXaXaXaXaXaXaXaXaXaXaXaXaXaXaX",
"aXaXaXaXaXaXaXaXaXaXaXaXaXaXaXaXaXaXaXaXaX@.R.`.J.L.J.aXaXaXaXaXaXaXaXaXaXaXaXaXaXaXaXaXaXaXaXaXaXaX",
"aXaXaXaXaXaXaXaXaXaXaXaXaXaXaXaXaXaXaXv #.L.L.).b.j.K.`.@.aXaXaXaXaXaXaXaXaXaXaXaXaXaXaXaXaXaXaXaXaX",
"aXaXaXaXaXaXaXaXaXaXaXaXaXaXaXaXaX` l.` d.d.%.%.@.` @.w.w.}.`.aXaXaXaXaXaXaXaXaXaXaXaXaXaXaXaXaXaXaX",
"aXaXaXaXaXaXaXaXaXaXaXaXaXaXaXaX_ b.}.d._ %.#.#.@.} ` T %.).z.K.@.aXaXaXaXaXaXaXaXaXaXaXaXaXaXaXaXaX",
"aXaXaXaXaXaXaXaXaXaXaXaXaXaXaX( ).P.j.k.` } #.#.} _ ( b b.j.#.%.d.aXaXaXaXaXaXaXaXaXaXaXaXaXaXaXaXaX",
"aXaXaXaXaXaXaXaXaXaXaXaXaXaX} ` b.%.@.k.} c ) T ( n v c k.@.$.#.( @.aXaXaXaXaXaXaXaXaXaXaXaXaXaXaXaX",
"aXaXaXaXaXaXaXaXaXaXaXaXaXw.}.#.` %.@.@.w.g 8 + + # 8 b c.#.@.} _ J.b.aXaXaXaXaXaXaXaXaXaXaXaXaXaXaX",
"aXaXaXaXaXaXaXaXaXaXaXaX( b.b.} n @.` n k & . . . . . , _ o.` ( %.z.b.%.aXaXaXaXaXaXaXaXaXaXaXaXaXaX",
"aXaXaXaXaXaXaXaXaXaXaXaX%.z.$.} n M b 8 1 X . > , . . # 9 c ( } c.@.d.l.aXaXaXaXaXaXaXaXaXaXaXaXaXaX",
"aXaXaXaXaXaXaXaXaXaXaX` J.$.@.@.M 0 , *.Y.[ * a.U.H 2 D.U.m , @.j.@.#.j.d.aXaXaXaXaXaXaXaXaXaXaXaXaX",
"aXaXaXaXaXaXaXaXaXaXaXT %.} } ` ( J < x..X#.3 I. X' e Y. XD 7 N ` ` } } k.aXaXaXaXaXaXaXaXaXaXaXaXaX",
"aXaXaXaXaXaXaXaXaXaXd.M v _ _ M ..#.3 *.'.8.< F.].] q G.Y.D k &.n _ _ ( _ n aXaXaXaXaXaXaXaXaXaXaXaX",
"aXaXaXaXaXaXaXaXaXaXb.b.( c b t s / w p  .] q s  ./ q D <.J q s y n n %.R.z.aXaXaXaXaXaXaXaXaXaXaXaX",
"aXaXaXaXaXaXaXaXaXaXz.l.).` 6 - : k 9 u a l e u a k e a a k q w : = ) R.j.c.aXaXaXaXaXaXaXaXaXaXaXaX",
"aXaXaXaXaXaXaXaXaXj.l.@.j.d.& & 5 5 * e l 5 * j l 2 * j l < * q 7 & b %.$.b.%.aXaXaXaXaXaXaXaXaXaXaX",
"aXaXaXaXaXaXaXaXaX_.k.@.#.T % *.#XH.p ^.3Xv.V .X,Xu.Z +X:X3.W #X'.S 6 ` #.l.z.aXaXaXaXaXaXaXaXaXaXaX",
"aXaXaXaXaXaXaXaXaXb.j.` } t * s.,XE.C .XwXE.D ;XqXv.H 1X8X4.[ ,XoXD . ( ` @.b.aXaXaXaXaXaXaXaXaXaXaX",
"aXaXaXaXaXaXaXaXaX` ` _ ( t - *.&XE.D  X7XQ.C *X6Xn.U :X2X6.[ &XoXL X b ( ( j.( aXaXaXaXaXaXaXaXaXaX",
"aXaXaXaXaXaXaXaXaXd.c 0 c s r y 5.f.G <.m.m.I 2.n.f.G 5.n.6.D 1.t.U - 6 0 ` j.( aXaXaXaXaXaXaXaXaXaX",
"aXaXaXaXaXaXaXaXK.b.z.) # 2 8 u d ' Z -.>.| R -.<.X.I -.,._ D P U c w = @._.R.` aXaXaXaXaXaXaXaXaXaX",
"aXaXaXaXaXaXaXaX`.%.z.k.9 X % < j r 4 V G A 4 Z G A 4 Z G p r V j < * , k.d.#.` aXaXaXaXaXaXaXaXaXaX",
"aXaXaXaXaXaXaXaX_.#.#.) ( p.; a.,X`.K *XeX[.I :XwXN.~ 5XqXr.7.>X*XI ) A.d.#.#.) aXaXaXaXaXaXaXaXaXaX",
"aXaXaXaXaXaXaXaX}.%.#._ ..x.4 F.5X{.I &XiX$XU 5XiXQ.3.wXuXi.q.0X<X^ X.I.l.@.@.) aXaXaXaXaXaXaXaXaXaX",
"aXaXaXaXaXaXaXaX`.@.) ( ) j.q a.>X{.I oXyX%XI :XtX~.~ 5XrXm.2.1X=XY W F.z.} ` n aXaXaXaXaXaXaXaXaXaX",
"aXaXaXaXaXaXaXaXL._ ( b t J w p 6.f.L 2.Z.n.I 4.Z.m.K r.Z.6.D 5.g.L r m d.@.( c aXaXaXaXaXaXaXaXaXaX",
"aXaXaXaXaXaXaXaX` b c 9 = q 9 u f ' F :.>.| R :.>.+.L :.,.X.I P Y v y w n b 0 8 aXaXaXaXaXaXaXaXaXaX",
"aXaXaXaXaXaXaXaXL.L.K.#.# X . * r e 4 A D A 4 Z Z r w Z G r r A e - * , #.K.b.%.aXaXaXaXaXaXaXaXaXaX",
"aXaXaXaXaXaXaXaX}.l.k.` T $.; p.+XW.I .XwX!.K -X7XN.~ 3X5Xr.7.:XOXI W x.c.j.j.#.aXaXaXaXaXaXaXaXaXaX",
"aXaXaXaXaXaXaXaX`.#.} ( ..a.; S.5X{.I &XiX$XU 5XiXQ.{ wXuXf.q.0X<X^ X.I.l.@.$.` aXaXaXaXaXaXaXaXaXaX",
"aXaXaXaXaXaXaXaX).@.` T ) s.q a.>X{.I OXuX$XI 1XtX~.~ 6XrXm.7.5X=X^ _ D.z.$.@.( aXaXaXaXaXaXaXaXaXaX",
"aXaXaXaXaXaXaXaX)._ ( ` k H q y 6.g.K 1.Z.n.K 4.Z.m.K t.C.r.D 0.g.U r S z.@.) M aXaXaXaXaXaXaXaXaXaX",
"aXaXaXaXaXaXaXaXJ.( ( ( 7 7 0 u f [ F :.,.7.U :.,.O.U >.,.+.I -.^ b u r @.) M n aXaXaXaXaXaXaXaXaXaX",
"aXaXaXaXaXaXaXaX( g c g @ . . & 3 5 3 i V y 4 V V j 4 A V r 3 r 4 , * > v c 0 0 aXaXaXaXaXaXaXaXaXaX",
"aXaXaXaXaXaXaXaX_.R.R.@.N +.- $.@X(.p XX7XW.K &X5Xm.! :X1X6.| ;X.XD R a.l.R.R.%.aXaXaXaXaXaXaXaXaXaX",
"aXaXaXaXaXaXaXaX`.d.w.( N p.; S.3X{.K &XiX$XI 5XiX~.{ wXpXy.q.0X<XU X.U.l.#.%._ aXaXaXaXaXaXaXaXaXaX",
"aXaXaXaXaXaXaXaX`.#.@._ ) p.- a.,X`.K OXiX[.I 3XyX~.~ 7XtXy.7.5X=X^ [ D.z.$.#.) aXaXaXaXaXaXaXaXaXaX",
"aXaXaXaXaXaXaXaX`.%.` T g J < y 0.y.C 2.B.m.D 9.B.y.D u.C.5.D e.h.L q F k.$.@.M aXaXaXaXaXaXaXaXaXaX",
"aXaXaXaXaXaXaXaXR.@._ ( < 7 9 w d [ F -.>.2.H -.,.+.U ;.,.+.L P ^ b u w d.} _ b aXaXaXaXaXaXaXaXaXaX",
"aXaXaXaXaXaXaXaXJ.T M v +   . $ * 2 3 r p t 3 i A r q i i e q w 5 = $ > #.) b g aXaXaXaXaXaXaXaXaXaX",
"aXaXaXaXaXaXaXaX_ b v g c _ = +. Xz.V ^.3X(.C #X>Xi.R &X:X2.~ @X XD Q *.n v v 8 aXaXaXaXaXaXaXaXaXaX",
"aXaXaXaXaXaXaXaXR.J.J.#.) *.- a.,XE.C *XiX!.I 3XpXN.! 0XtXu.7.5X&XU _ D.l.c.z.} aXaXaXaXaXaXaXaXaXaX",
"aXaXaXaXaXaXaXaXb.( ( M N $.* *.+XW.C XXeX!.K -X0XN.! 3X7Xr.O.,X*XU ) A.w.( M c aXaXaXaXaXaXaXaXaXaX",
"aXaXaXaXaXaXaXaXj.b b c g S - t 8.0.p | N.g.C 8.V.r.C 9.V.4.V 9.f.K 7 b @.T n 8 aXaXaXaXaXaXaXaXaXaX",
"aXaXaXaXaXaXaXaX#.c h h , 2 8 w a ~ Q P ;.7.R -.<.O.H -.<.$.D f U n w q } M v 6 aXaXaXaXaXaXaXaXaXaX",
"aXaXaXaXaXaXaXaX@.8 6 6 o     $ * * < 3 4 5 3 4 r 5 3 w 4 5 3 3 3 & $ = _ 8 8 @ aXaXaXaXaXaXaXaXaXaX",
"aXaXaXaXaXaXaXaX) # # @ 1 z . l a.X.4 =.Y.q.A S.Y.3.V G.Y.I Q F.a.r j N M # @ O aXaXaXaXaXaXaXaXaXaX",
"aXaXaXaXaXaXaXaX# O O O g E * E G.s.i T.+Xv.V |.#Xu.Z  X#X3.R |.U.D B ..# O O O aXaXaXaXaXaXaXaXaXaX",
"aXaXaXaXaXaXaXaXaXaXaXaXaXaXaXaXaXaXaXaXaXaXS U. X9.G aXaXaXaXaXaXaXaXaXaXaXaXaXaXaXaXaXaXaXaXaXaXaX",
"aXaXaXaXaXaXaXaXaXaXaXaXaXaXaXaXaXaXaXaXaXaX_ _ ( %.aXaXaXaXaXaXaXaXaXaXaXaXaXaXaXaXaXaXaXaXaXaXaXaX"
};
