/* XPM */
static char *_6b2fa9b52814c6bac06e63a67766350H2Zzr7gxwFbRTRYA[] = {
/* columns rows colors chars-per-pixel */
"50 50 18 1 ",
"  c #383F40",
". c #464D4F",
"X c #855A00",
"o c #744000",
"O c #141413",
"+ c black",
"@ c #9F7315",
"# c #2F1C17",
"$ c #536265",
"% c #28221F",
"& c #C1B339",
"* c #382B2F",
"= c #62797E",
"- c #4B3F38",
"; c #B08A2E",
": c #716033",
"> c #6C5256",
", c white",
/* pixels */
"              .  XXXoO+@XXX  #                    ",
"..............$..@@@X%O&@@@..*....................",
"              .  XXXoO+@XXX  #                    ",
"..............$..@@@X%O&@@@.. ....................",
"..............=..@@@XO+&@@@.. ....................",
"...... .......$..@@@XO+&@@@.......................",
"..... =.......=..@@@X%O&@@@....$$$=$====$.........",
"....*$........=..@@@X%O&@@@..............$........",
"...*$.........=..@@@X%O&@@@...............$.......",
"..*-..........=..@@@XOO;@@@@@@@@@@@@@@@:...$......",
"..--..........=..@@@X%O&@@@@@@@@@@@@@@@@@...$.....",
"..--.........$=..@@@@OO;@@@@@@@@@@@@@@@@@:...$....",
"$$$>=$=$======...@@@X%O;;;;;;;;@;@;@@@@@@@....$===",
"..-...............;@@%%%%%%%%%%O%OOO+X@@@@........",
"..--............ ;@@@X%%%%%%%%O%O%OOO+.@.@........",
"**##* *      ...$@@@@@@@@@@@@@@@... O+..@@...**** ",
"..--.......... ..:@@@@@@@@@@@@@.@...O+...@..*.....",
"...-....... . ....@@@@@@@@@@@@@@.@. O+$.@...*.....",
"..-....... $ . $...:@@@@@@@@@@@@@...O+$..@..*.....",
"...-..... = . =.$...............@@. O+$.@...*.....",
"........ =.. $...$..............@.. O+=..@..*.....",
"...-....$.. ...... ******   .....@. O+=.@...* ....",
"................................@.. O+=.....*$....",
".............................$..... OO$.... ......",
".............................$..@.. %O=... =*.....",
".............................$..... O%$...$ ..... ",
".............................$..... %O$... = ... $",
".............................=......O%$...$. ..*$.",
"............. ***............=..@.. %O$..@.. .*-..",
"............ *--  ..........$=......O%$..... .--..",
"........... *--.. $==========...@.@.%%$..@.. .-...",
"..........=*--.-..$..............@..O%$..... ..-..",
".........=.* --..=$.......; ....@.@.%%...@.. .-...",
"........=...:..:&;@@@@@@@;oX@@@@.@..O%..@... .....",
".......=...@&&&;@@@@@@@;&+o@@@@@@...%%.@.@.. .....",
"......=...:@@@@@@@@@@;&+OOX@@@@@.@..O%;.@@........",
"$=====....@@@@@@@;;&&+O%O%OXX@;@@.. %%;@@@....$$$=",
"..........@@@@XOO%%O%%%O%O%+++++OO%%%%@@@@........",
"..........@@@@O+O%O%%%O%O%OOOOOOO%O%%X@@@@........",
"**    ....@@@@O+@@@@@@@@@@@@@@@@@@@@@@@@@@....*** ",
"..........@@@XO+@@@@@@@@@@@@@@@@@@@@@@@@@:...*....",
".......$..@@@@O+;@@@@@@@@@@@@@@@@@@@@@@@@...*.....",
"...* ..$..@@@XO+@@@@@@@@@@@@@@@@@@@@@@@:...*......",
"..*-.$.$..@@@XO+;@@@......................*.......",
".. .=$.=..@@@XO+&@@@..................... ........",
"...$...=..@@@X%O&@@@...********** *      .........",
".......=..@@@XO+&@@@..* ..........................",
".......=..@@@X%O;@@@..*...........................",
".......=..@@@XO+&@@@..*...........................",
".......$..@@@o%O@@@@..*..........................."
};
