/* XPM */
static char *result[] = {
/* columns rows colors chars-per-pixel */
"50 50 208 2 ",
"   c #35241D",
".  c #382622",
"X  c #3B2A23",
"o  c #332D29",
"O  c #3D2E2B",
"+  c #342823",
"@  c #34322C",
"#  c #3B332D",
"$  c #3E3127",
"%  c #393731",
"&  c #3E3C35",
"*  c #3F3D39",
"=  c #353635",
"-  c #2C2B25",
";  c #442E25",
":  c #452F27",
">  c #413126",
",  c #4C3426",
"<  c #44332C",
"1  c #4A332B",
"2  c #4F3A2B",
"3  c #553A2B",
"4  c #5B3D2E",
"5  c #513427",
"6  c #423D35",
"7  c #4B3C34",
"8  c #463833",
"9  c #523E33",
"0  c #583F35",
"q  c #53422F",
"w  c #5E432F",
"e  c #4C4237",
"r  c #44423B",
"t  c #49453D",
"y  c #4A483F",
"u  c #544135",
"i  c #5C4334",
"p  c #544439",
"a  c #56493C",
"s  c #5B4A3B",
"d  c #5F453C",
"f  c #61402F",
"g  c #624533",
"h  c #654834",
"j  c #6A4B36",
"k  c #624B3D",
"l  c #694C38",
"z  c #62473E",
"x  c #65513F",
"c  c #6D523A",
"v  c #74543B",
"b  c #7A573F",
"n  c #7B5B3E",
"m  c #4D4B43",
"M  c #404342",
"N  c #514E45",
"B  c #564845",
"V  c #535147",
"C  c #545249",
"Z  c #59574C",
"A  c #5B594D",
"S  c #5E5C51",
"D  c #5F5D59",
"F  c #565755",
"G  c #664E44",
"H  c #6E5A4A",
"J  c #685544",
"K  c #795C48",
"L  c #615E53",
"P  c #6B5D5A",
"I  c #655853",
"U  c #73624D",
"Y  c #79654E",
"T  c #646256",
"R  c #696057",
"E  c #666459",
"W  c #69665A",
"Q  c #6C6A5D",
"!  c #7D6651",
"~  c #716C5E",
"^  c #776756",
"/  c #6A6664",
"(  c #6F6A68",
")  c #686765",
"_  c #716F61",
"`  c #7E6D6A",
"'  c #757364",
"]  c #797567",
"[  c #7A756A",
"{  c #7C7A6B",
"}  c #75726C",
"|  c #6F6E72",
" . c #76757B",
".. c #7A7778",
"X. c #815F42",
"o. c #8C6A4C",
"O. c #886544",
"+. c #826954",
"@. c #88755B",
"#. c #95775B",
"$. c #806D64",
"%. c #84736E",
"&. c #817F6E",
"*. c #897669",
"=. c #977E66",
"-. c #837D7C",
";. c #877873",
":. c #82806F",
">. c #9E816A",
",. c #948067",
"<. c #858372",
"1. c #888675",
"2. c #8B8976",
"3. c #8E8C79",
"4. c #928374",
"5. c #918F7C",
"6. c #9B8978",
"7. c #93917E",
"8. c #9E927D",
"9. c #A0886C",
"0. c #A28F75",
"q. c #AD9275",
"w. c #7E7E82",
"e. c #807F84",
"r. c #848484",
"t. c #858489",
"y. c #8D8C8C",
"u. c #898487",
"i. c #9B8F8B",
"p. c #928888",
"a. c #969581",
"s. c #999783",
"d. c #9C9A85",
"f. c #91908F",
"g. c #9F9D88",
"h. c #9A948F",
"j. c #8C8B91",
"k. c #908F98",
"l. c #939393",
"z. c #9C9494",
"x. c #95949B",
"c. c #9C9C9C",
"v. c #A09E89",
"b. c #A39784",
"n. c #A69E9B",
"m. c #A4A38D",
"M. c #A9A58E",
"N. c #A9A791",
"B. c #ABAA93",
"V. c #A9A39E",
"C. c #BBAB92",
"Z. c #B7A797",
"A. c #B4B299",
"S. c #B9B39C",
"D. c #BBA689",
"F. c #9C9BA1",
"G. c #9897A0",
"H. c #A09FA8",
"J. c #A3A3A3",
"K. c #ADA4A4",
"L. c #ABA8A5",
"P. c #A4A3A9",
"I. c #ABAAAC",
"U. c #B4ADAC",
"Y. c #B4A9A4",
"T. c #BDB9A8",
"R. c #ACABB2",
"E. c #ACAAB5",
"W. c #B0AFB9",
"Q. c #B4B4B4",
"!. c #B5B4BA",
"~. c #BBBBBB",
"^. c #BBB7B4",
"/. c #C3B09F",
"(. c #C4B7A3",
"). c #D0BFAB",
"_. c #C2BEBC",
"`. c #C3BCB5",
"'. c #C0C0BF",
"]. c #CCC5BD",
"[. c #D7D5B8",
"{. c #BCBBC3",
"}. c #B8B6C0",
"|. c #C5C5C5",
" X c #C9C7C5",
".X c #C6C5CC",
"XX c #CCCBCC",
"oX c #C8C7CB",
"OX c #D0CFCC",
"+X c #CECDD1",
"@X c #D0CFD5",
"#X c #D2D2D4",
"$X c #D7D7D9",
"%X c #DBDBDC",
"&X c #E4DCD5",
"*X c #ECE5DD",
"=X c #DCDBE0",
"-X c #E4E4E4",
";X c #EAE7E7",
":X c #E6E6E9",
">X c #EBEBEB",
",X c #EBE9E6",
"<X c #F1F0EF",
"1X c #EEEEF0",
"2X c #F2F2F3",
"3X c #F8F7F9",
"4X c #FEFFFE",
"5X c None",
/* pixels */
"5X5X5X5X5X5X5X5X5X5X5X5X5X5X5X5X5X5X5X5X5X5X5X{ 5.5.{ 7.7.5X5X5X5X5X5X5X5X5X5X5X5X5X5X5X5X5X5X5X5X5X",
"5X5X5X5X5X5X5X5X5X5X5X5X5X5X5X5X5X5X5X5X5XT :.N.S.T.v.7.v.B.<.5X5X5X5X5X5X5X5X5X5X5X5X5X5X5X5X5X5X5X",
"5X5X5X5X5X5X5X5X5X5X5X5X5X5X5X5X5X5X5X_ A :.7.<.{ ] _ E &.7.1.] [.{ 5X5X5X5X5X5X5X5X5X5X5X5X5X5X5X5X",
"5X5X5X5X5X5X5X5X5X5X5X5X5X5X5X5X5XV { T.7.S &.{ ] { _ _ E Q E T.m.B.5.5X5X5X5X5X5X5X5X5X5X5X5X5X5X5X",
"5X5X5X5X5X5X5X5X5X5X5X5X5X5X5X5XE 7.A.7.3.W ] { ' ] _ Q Q Z _ v.' ' 3.:.5X5X5X5X5X5X5X5X5X5X5X5X5X5X",
"5X5X5X5X5X5X5X5X5X5X5X5X5X5X5XV { A.] ] :.1.y Q ' ' Q E L r 5.&.' { ] Q T 5X5X5X5X5X5X5X5X5X5X5X5X5X",
"5X5X5X5X5X5X5X5X5X5X5X5X5X5X:.m.T :.] _ ] 3.C A m M m y Z r 7.{ ' [ ' N a.<.5X5X5X5X5X5X5X5X5X5X5X5X",
"5X5X5X5X5X5X5X5X5X5X5X5X5XW A.g.S E { _ Q ' Z # & _ ' q @ 6 1.&.Q ' A { m.g.5X5X5X5X5X5X5X5X5X5X5X5X",
"5X5X5X5X5X5X5X5X5X5X5X5XZ s.1.] T Z ~ W y e s e $ q k a X < e A W Q T 7.' 3.2.5X5X5X5X5X5X5X5X5X5X5X",
"5X5X5X5X5X5X5X5X5X5X5Xt :.3.] ' ' C C t > 2 2 = > 2 2 * > 3 2 # m A a.1.' [ 3.&.5X5X5X5X5X5X5X5X5X5X",
"5X5X5X5X5X5X5X5X5X5X5XL B.] ' ' Q L 8   X < O . + > O . + $ $ X X 6 ' ' ~ ' ' a.S 5X5X5X5X5X5X5X5X5X",
"5X5X5X5X5X5X5X5X5X5XS y L W ~ _ L T ] ; ..I.h.3 C L.P.H < x.L.%.: ) T E Q Q T { V 5X5X5X5X5X5X5X5X5X",
"5X5X5X5X5X5X5X5X5X5X3.<.y A T E S l.1., -.~.V.w I !.Q.Y 1 J.~.4., ..f.S E E C { ] 5X5X5X5X5X5X5X5X5X",
"5X5X5X5X5X5X5X5X5X5X2.m.<.A m V ..I.;.5 r.'.Y.g I ~.^.! 7 L.~.4., -.I.{ C C 7.N.s.{ 5X5X5X5X5X5X5X5X",
"5X5X5X5X5X5X5X5X5X' a.' m.M.m # a U +.i a ! @.J 2 H @.! 2 J @.@.u p U Y e E g.{ 3.:.5X5X5X5X5X5X5X5X",
"5X5X5X5X5X5X5X5X5X3.2.' _ 5.m # w h P N v v K F l v v E a v v R m j h x M y ' ] 1.s.5X5X5X5X5X5X5X5X",
"5X5X5X5X5X5X5X5X5XA.1.' { W o +   ; > < 5 5 1 1 1 1 5 1 1 1 1 1 < : ; X + # W { Q M.W 5X5X5X5X5X5X5X",
"5X5X5X5X5X5X5X5X5Xs.:.Q Q A 1 : p.I.4.4 e. XU.j P {._.+.0 E._.p.4 -.U.i.0 + A Q E 1.7.5X5X5X5X5X5X5X",
"5X5X5X5X5X5X5X5X5XE T L W Z s < U.$XZ.4 Y.3X&Xv $.3X<X=.d &X3X/.4 K.=X(.i 8 A L Z E { 5X5X5X5X5X5X5X",
"5X5X5X5X5X5X5X5Xd.2.C & t / H < Q.%XZ.f U.3X&XK %.3X3X=.G ;X3X/.g I.>X`.f I D & E 7.2.5X5X5X5X5X5X5X",
"5X5X5X5X5X5X5X5Xs.3.s.:.6 N x : ~ 8.9.g ^ M.D.X.G b./.#.0 4.C.q.g ^ 8.6.h 7 6 W B.M.3.A 5X5X5X5X5X5X",
"5X5X5X5X5X5X5X5XB.' 1.7.A 2 A u j v *.P X.O.=.} K O.o.-.H X.o.=.P b n Y L i q ] 2.' ] S 5X5X5X5X5X5X",
"5X5X5X5X5X5X5X5XM.Q ] Q 6 + o X , 5 7 7 f 4 0 7 4 4 4 0 3 f 4 9 7 4 5 1 % : X ' :.' ' S 5X5X5X5X5X5X",
"5X5X5X5X5X5X5X5XA.' { ' C L u : } p.$.0 %.K.i.j H n.H.X.0 z.H.;.0 %.z.;.3 B ( { ] ' ' A 5X5X5X5X5X5X",
"5X5X5X5X5X5X5X5XB.E T Q C l.H < ^.=XZ.f U.4X*XK %.4X4X=.G <X4X(.f U.2X].i R J.<.:.Q W m 5X5X5X5X5X5X",
"5X5X5X5X5X5X5X5Xg.S E S N f.J > Q.%XZ.f U.4X*Xv %.4X4X=.z ;X4X/.w I.<X`.i P J.{ { Q A m 5X5X5X5X5X5X",
"5X5X5X5X5X5X5X5XQ y N M r f.U 2 Q.%XS.j U.4X*Xo.%.4X3Xq.G ;X4X).j Y.1X].c P J.A C m 6 r 5X5X5X5X5X5X",
"5X5X5X5X5X5X5X5X7.g.7.<.m f.' T ^.%X^.=. X4X,X0.n.4X4XZ.4.1X4X].,.'.>X X@.-.J.E d.7.7.T 5X5X5X5X5X5X",
"5X5X5X5X5X5X5X5XS.2.a.{ V f.f.l.|.$X%X^.3X4X4X'.-X4X4X%XOX4X4X1X~.,X,X$Xc.Q.J.<.s.1.2.Q 5X5X5X5X5X5X",
"5X5X5X5X5X5X5X5XB.Q _ Q V f.J.~.|.$X;X2X4X4X4X4X4X4X4X4X4X4X4X4X4X2X;X%XOX|.J.{ { _ ] T 5X5X5X5X5X5X",
"5X5X5X5X5X5X5X5Xg.Q _ T V j.J.Q. X$X-X3X4X4X4X4X4X4X4X4X4X4X4X4X4X2X:X%X#X XJ.:.1.' ' S 5X5X5X5X5X5X",
"5X5X5X5X5X5X5X5Xm.T L _ Z f.L.Q. X#X-X2X4X4X4X4X4X4X4X4X4X4X4X4X4X2X:X%X#X XJ.<.1.W W V 5X5X5X5X5X5X",
"5X5X5X5X5X5X5X5Xd.Z E _ V y.L.Q.|.#X-X2X4X4X4X4X4X4X4X4X4X4X4X4X4X2X;X%X#X|.J.] ] T S A 5X5X5X5X5X5X",
"5X5X5X5X5X5X5X5XW r m V r f.P.Q.|.#X-X2X4X4X4X4X4X4X4X4X4X4X4X4X4X2X;X%X#XoXJ.Z V r r r 5X5X5X5X5X5X",
"5X5X5X5X5X5X5X5X3.5.7.] m y.J.Q.|.#X*X2X4X4X4X4X4X4X4X4X4X4X4X4X4X2X;X%XOX|.J.Q 7.5.3.S 5X5X5X5X5X5X",
"5X5X5X5X5X5X5X5XB.3.7.] m f.J.Q.'.#X-X2X4X4X4X4X4X4X4X4X4X4X4X4X4X2X;X%X#X|.J.:.5.1.2.S 5X5X5X5X5X5X",
"5X5X5X5X5X5X5X5XN._ ' _ m y.J.Q.'.#X-X2X4X4X4X4X4X4X4X4X4X4X4X4X4X1X;X%X#XoXJ.:.:.Q ] A 5X5X5X5X5X5X",
"5X5X5X5X5X5X5X5XN.' _ W V y.J.R.|.#X=X2X4X4X4X4X4X4X4X4X4X4X4X4X4X2X,X%X#X|.J.&.1.{ _ Z 5X5X5X5X5X5X",
"5X5X5X5X5X5X5X5Xm.' E Q N y.J.Q.|.OX-X1X4X4X4X4X4X4X4X4X4X4X4X4X4X2X;X%X#XoXJ.] &.Q E y 5X5X5X5X5X5X",
"5X5X5X5X5X5X5X5Xd.T E T m y.J.R.'.#X=X>X4X4X4X4X4X4X4X4X4X4X4X4X4X1X,X%XOX|.J.&.{ T A Z 5X5X5X5X5X5X",
"5X5X5X5X5X5X5X5X' y y y & y.J.I.'.+X=X1X4X4X4X4X4X4X4X4X4X4X4X4X3X2X:X%X+XoXJ.S Z y r r 5X5X5X5X5X5X",
"5X5X5X5X5X5X5X5X:.<.2.' m r.J.I.~.XX%X;X2X3X3X3X3X3X3X3X3X3X3X3X3X>X-X$XXX'.c.T <.:.&.N 5X5X5X5X5X5X",
"5X5X5X5X5X5X5X5Xv.] &.] V r.c.L.^.|.#X=X1X1X1X2X1X2X1X1X1X1X2X2X1X-X$X+X|.~.c.{ <._ ] y 5X5X5X5X5X5X",
"5X5X5X5X5X5X5X5X2.C S S V w.l.J.R.{.XX$X-X:X;X:X:X:X:X:X:X:X:X:X:X%X#X.X'.Q.l.' Q Z Z r 5X5X5X5X5X5X",
"5X5X5X5X5X5X5X5X{ N N V m ..f.c.P.!.{.+X=X=X=X=X=X=X=X=X=X=X=X=X%X#X.X'.!.I.j.Q Q S V % 5X5X5X5X5X5X",
"5X5X5X5X5X5X5X5X_ y r y M  .r.l.F.I.~.'.@X@X@X@X@X@X#X@X@X@X#X#X@X.X{.!.R.J.t.' S N y @ 5X5X5X5X5X5X",
"5X5X5X5X5X5X5X5X_ & & & * | w.j.x.F.E.}..X.X.X.X.X.X.X.X.X.X.X.X.X{.!.R.H.F.w.Q N % & @ 5X5X5X5X5X5X",
"5X5X5X5X5X5X5X5XZ @ % = = )  .w.j.G.F.E.}.}.{.{.{.{.{.{.{.{.{.{.{.W.R.H.c.x...C r @ % - 5X5X5X5X5X5X",
"5X5X5X5X5X5X5X5X% @ % % & ) |  .t.j.G.P.E.W.W.W.W.W.W.W.W.W.W.W.W.R.H.G.k.j. .% @ @ @ o 5X5X5X5X5X5X",
"5X5X5X5X5X5X5X5X5X5X5X5X5X5X5X5X5X5X5X5X5X5X5X5X5X5X5X5X5X5X5X5X5X5X5X5X5X5X5X5X5X5X5X5X5X5X5X5X5X5X"
};
