/* XPM */
static char *d7d6b5d5f7d6497ccc7700bc68fba9dcoBAZX0S3jmbC510T[] = {
/* columns rows colors chars-per-pixel */
"50 50 6 1 ",
"  c #383F40",
". c #382B2F",
"X c #464D4F",
"o c #62797E",
"O c #536265",
"+ c white",
/* pixels */
"         .X              .X              .X       ",
"         .X              .X              .X       ",
"         .X              .X              .X       ",
"         .X              .X              .X       ",
"XXXXXXXXX oXXXXXXXXXXXXXX oXXXXXXXXXXXXXX oXXXXXXX",
"     oX  .X  oX      oX  .X  oX      oX  .X  oX   ",
"XXXX.  XX oX.  XXXXX.  XX oX.  XXXXX.  XX oX.  XXX",
"XXXX..XXX.oX..XXXXXX..XXX.oX..XXXXXX..XXX.oX..XXXX",
"XXXXXXXXX oXXXXXXXXXXXXXX oXXXXXXXXXXXXXX oXXXXXXX",
"XXXXXXXXX.oXXXXXXXXXXXXXX.oXXXXXXXXXXXXXX.oXXXXXXX",
"XXXXXXXXX oXXXXXXXXXXXXXX oXXXXXXXXXXXXXX oXXXXXXX",
"XXXXXXXXX oXXXXXXXXXXXXXX oXXXXXXXXXXXXXX oXXXXXXX",
"XXXXXXXXX oXXXXXXXXXXXXXX oXXXXXXXXXXXXXX oXXXXXXX",
"XXXXXo XX oXXo XXXXXXo XX oXXo XXXXXXo XX oXXo XXX",
"XXXX.  XXXoX.  XXXXX.  XXXoX.  XXXXX.  XXXoX.  XXX",
"XXXX..XXX OX..XXXXXX..XXX OX..XXXXXX..XXX OX..XXXX",
"XXXXXXXXXXoXXXXXXXXXXXXXXXoXXXXXXXXXXXXXXXoXXXXXXX",
"XXXXXXXXX OXXXXXXXXXXXXXX OXXXXXXXXXXXXXX OXXXXXXX",
"XXXXXXXXXXoXXXXXXXXXXXXXXXoXXXXXXXXXXXXXXXoXXXXXXX",
"XXXXXXXXX OXXXXXXXXXXXXXX OXXXXXXXXXXXXXX OXXXXXXX",
"XXXXXXXXX OXXXXXXXXXXXXXX OXXXXXXXXXXXXXX OXXXXXXX",
"XXXXXo XX OXXo XXXXXXo XX OXXo XXXXXXo XX OXXo XXX",
"XXXX.  XX.OX.  XXXXX.  XX.OX.  XXXXX.  XX.OX.  XXX",
"XXXX..XXX OX..XXXXXX..XXX OX..XXXXXX..XXX OX..XXXX",
"XXXXXXXXX.OXXXXXXXXXXXXXX.OXXXXXXXXXXXXXX.OXXXXXXX",
"XXXXXXXXX OXXXXXXXXXXXXXX OXXXXXXXXXXXXXX OXXXXXXX",
"XXXXXXXXX.OXXXXXXXXXXXXXX.OXXXXXXXXXXXXXX.OXXXXXXX",
"XXXXXXXXX.OXXXXXXXXXXXXXX.OXXXXXXXXXXXXXX.OXXXXXXX",
"XXXXXXXXX.OXXXXXXXXXXXXXX.OXXXXXXXXXXXXXX.OXXXXXXX",
"XXXXXo XX.OXXo XXXXXXo XX.OXXo XXXXXXo XX.OXXo XXX",
"XXXX.  XX.OX.  XXXXX.  XX.OX.  XXXXX.  XX.OX.  XXX",
"XXXX..XXX.OX..XXXXXX..XXX.OX..XXXXXX..XXX.OX..XXXX",
"XXXXXXXXX.OXXXXXXXXXXXXXX.OXXXXXXXXXXXXXX.OXXXXXXX",
"XXXXXXXXX.OXXXXXXXXXXXXXX.OXXXXXXXXXXXXXX.OXXXXXXX",
"XXXXXXXXX.OXXXXXXXXXXXXXX.OXXXXXXXXXXXXXX.OXXXXXXX",
"XXXXXXXXX.OXXXXXXXXXXXXXX.OXXXXXXXXXXXXXX.OXXXXXXX",
"XXXXXXXXX.XXXXXXXXXXXXXXX.XXXXXXXXXXXXXXX.XXXXXXXX",
"XXXXXo XX.OXXo XXXXXXo XX.OXXo XXXXXXo XX.OXXo XXX",
"XXXX.  XX.XX.  XXXXX.  XX.XX.  XXXXX.  XX.XX.  XXX",
"XXXX..XXX.OX..XXXXXX..XXX.OX..XXXXXX..XXX.OX..XXXX",
"XXXXXXXXX.XXXXXXXXXXXXXXX.XXXXXXXXXXXXXXX.XXXXXXXX",
"XXXXXXXXX.OXXXXXXXXXXXXXX.OXXXXXXXXXXXXXX.OXXXXXXX",
"XXXXXXXXX.XXXXXXXXXXXXXXX.XXXXXXXXXXXXXXX.XXXXXXXX",
"XXXXXXXXX.XXXXXXXXXXXXXXX.XXXXXXXXXXXXXXX.XXXXXXXX",
"XXXXXXXXX.XXXXXXXXXXXXXXX.XXXXXXXXXXXXXXX.XXXXXXXX",
"XXXXXo XX.XXXo XXXXXXo XX.XXXo XXXXXXo XX.XXXo XXX",
"XXXX.  XX.XX.  XXXXX.  XX.XX.  XXXXX.  XX.XX.  XXX",
"XXXX..XXX.XX..XXXXXX..XXX.XX..XXXXXX..XXX.XX..XXXX",
"XXXXXXXXX.XXXXXXXXXXXXXXX.XXXXXXXXXXXXXXX.XXXXXXXX",
"XXXXXXXXX.XXXXXXXXXXXXXXX.XXXXXXXXXXXXXXX.XXXXXXXX"
};
