/* XPM */
static char *result[] = {
/* columns rows colors chars-per-pixel */
"50 50 78 1 ",
"  c #062D1F",
". c #0B351F",
"X c #0D3B1F",
"o c #113C1E",
"O c #001E22",
"+ c #002522",
"@ c #012C23",
"# c #023324",
"$ c #093521",
"% c #053B25",
"& c #0A3C23",
"* c #033628",
"= c #043C28",
"- c #093D28",
"; c #113E21",
": c #0F411E",
"> c #16441E",
", c #1B451A",
"< c #14491F",
"1 c #1B4C1E",
"2 c #1E511F",
"3 c #214D1B",
"4 c #2B5617",
"5 c #22551E",
"6 c #265B1E",
"7 c #2A5D1D",
"8 c #305C17",
"9 c #27601F",
"0 c #2C631E",
"q c #2F691E",
"w c #306016",
"e c #3A6C17",
"r c #32671B",
"t c #346C1E",
"y c #396E1A",
"u c #3F7116",
"i c #36711E",
"p c #3A741D",
"a c #3E791D",
"s c #074027",
"d c #0B4326",
"f c #0E4926",
"g c #064229",
"h c #0A4429",
"j c #0D4B2A",
"k c #124422",
"l c #184620",
"z c #144B24",
"x c #1A4D21",
"c c #124D2A",
"v c #165025",
"b c #1B5323",
"n c #1E5A25",
"m c #14532C",
"M c #195629",
"N c #17592D",
"B c #1B5B2B",
"V c #215621",
"C c #235C22",
"Z c #295F20",
"A c #225F28",
"S c #1F612C",
"D c #1B6231",
"F c #256224",
"G c #2A6421",
"H c #2D6B24",
"J c #23642A",
"K c #276829",
"L c #286928",
"P c #316D22",
"I c #2F7025",
"U c #357121",
"Y c #427517",
"T c #477D17",
"R c #487D17",
"E c #417618",
"W c #447C19",
"Q c #488119",
/* pixels */
"&JNhh%#@vP#@######hJN  #s%@*##%hMSzh0o%BS=+@%h@&q$",
"iPz#mLl+@@zKBhbLmctr%#@@#MKm@ .#@7a-++7pb#@-ghs##h",
";&#+ 6px+kiqd-tr#uPd#@++@t0&#jj#+#M&@+&:#@+kHG#mm*",
"%hNm@=GYO8r@@##@@X#-@@mmd.@=Fiv##@#h#&Nm#+@%Vi0zPG",
"i*CiGs#2@#%#+hJMh&@#%hzPP$#ran##MJz*zaZ-jg+@=CwOzi",
",+#ka3O%%cDj@@bab@bHMh@$Pp#11#@@sZa$%x@@MHx+@#=hh>",
"j-++51#h%%%sh%hk#.t5##++kbcj@+@@@j&@#jc#@VP%*bUJ=h",
"GUz+ %h%fBc#% cBd##@#MS%@GU&@hh@+%MM#jNg@#dc*b0+@@",
"#5dhss#$pq%@##@7ab#O7pl%sC;+hBKz+@za7OkJAhscLz@##@",
"f+zHA%@&b%+jmj#@GY@+km+=mj@-s@6px%sk&+Gy$+##6pVsjj",
"#zir@@@g#+6Pv%h@#7*##=krGh$@mmh7ps#++@dfmM#@@CpzUG",
"#Zy@+%JB+6aV%@cJz@@j-#ar#@+Can@#1 +&JM@#zPr$+#@$0.",
"@kz##+oaV<C=#@#0p.xLc$ps+++;z@@@##diPz-=#zirO-h%##",
"+@## ##z&%=##@#sv#i5++&s-cc#@s@#j*et%*AUv#>0 #GHv=",
"%BM*@@hh@sSc + #=##@@@ #sdttz%#MJ*1&+#srb@@@=#$rx%",
"Utc%MKcscgxpb@@#nJh$hj###@&F#@Cp1@@@@dc=+@zJBgh-@@",
">f=Cp5 #MP<zQ>%Gal*h%hHF +%j->Wb@mm%+#BHk*Ut# @hs#",
"h=%eG==#+6t-v%&Yx#h%@#<p7&PP=bZ@GPM=@@&rix#@=Bh@mm",
"#%%@sjJM+@sh  +%jf#%BN#zud6&@%@#0>+fAB-@y5+ki0#ki0",
"%NGz%#>a7d=h=#kKM##+>pGg##*-#hg#@++%CUo+dzsEG&dQ6%",
"sdrt#@+hR<xUBht7+++#@Xz##KUz*NU6@#@%-z@@s%.rgg$>@@",
"*hh@@@@@hZiCh#&%%hMN%++ -rv#h#1p7@#%#+@cB&+hs%jm- ",
"@BJ&+dJA#Z7+*Jnzhqi;#hj# @##hg#xr%MJc+#dHyk*@+&qUl",
"+@riz-lUV+hm#:ab7E&++&j%@s@&GA#@#Gp1%hdjhqE#hhgs7Y",
"+@#ri#@d#<UC@+-#.&%%@@&07@&it& #>Tk+&PH$#hw-nPC@@q",
"Jv#%.fJj%b0#-c@@+%cSN@ <a53uss#O&C%+.r&@@*#%-CC#%%",
"Va;ObpZs#O+h%-Ln&hpq %-#lr&h@jh*sh@%h=g#@CLs#%@jm#",
"#b-.TC=#+-cj@+lpH#k@kHJ#hBj#VPv-s+@cHL&@0iv#@+CHc@",
"#%gh7@@+kPG@#g*kRoO;a0@#hGiX77@@*MM%xiroEz=$O5pV@@",
"#NJv#=jkEHd@%jh#<.O4r@@#hz7d@@-fqid@+kr@hMJh@qZ+-s",
"%.rid&*.y@%&@JGm#+@k&+dFJ% #-#+pi&%h#@@@lWx+@**$cj",
"@@#te@%h%=BhO$tC+@#*h&0pv+smm@+.:@hNj+-s*&@+%Nm=bP",
"%#%jb#ss +Cpv#j# @mBffaX+#hbi6#@@#@Vins&dNmziG#@%Z",
"Knf#@jc#h*+2xh%%-%%qpv@+@%-@xl#gh=$@n>#ki0%zG#O%h%",
"2ak@CHk+vIb#@#bHBh@ 0u @@#%%+++xPJgh=@ aq%+#ghcj*#",
"@f%0p1@#@5pG@8aC%@@*hz#+%ffmM@la0s@@ss.9sscNs#Gtk+",
"#%hyl+hf#+6u=Cb=&MSs&h%zJh+xpb57@@#@*j% @CUx++&qz#",
"J*@gj-*@+ @d#@##5a;+@*CpC%@OlW3O@%sMHB= @;x+#@#@dF",
".@bPA# hch%#cmh@$& @+&T1@mm*Ox5#&gbp7hNc+-jd #%dPy",
"++5G&#6PA%##zUZ@#%%@#sj%0tngg@%s%+40&iG-ktG%@%hby#",
"%h*#=Zab##%s#la7+%s%-JB&x2=fJS*#jh*+&G@ EG-zLM#@+#",
"#MP1@&k+.KKj%#>>#hmc@lp0+ dttf @#BPbs%+kt-++7px@cm",
"b@Gib+@+zix%.@+*biC##@kWx@,afs#+##5UV+@hs+@%%GY%CP",
"5O#G7*Sn&#gs#+#bp6@#=##%h*#  &MSj#@7e+@@MJ%#=h=h@1",
"*d#@%%ba3#KJ%#@1r@ nLjszJJj&@2p5+-s&z @+.qp@&KK*++",
"PM@+@##$krt&#gs-##7i6##Vi.#h&Tb@+*mc@ sms&X#tto#hc",
"Z++$NN#+5E%@@dSz+#rn@++@@#%@+.%%dtH&+zUV@#*zYd@kUH",
"=+%PiX@#Xzh=@+Zibgh@@%=@+mKz@@f%.6.OoWC @%mh+#%zZk",
"#@rp$@#jh#jLC&=ZWk##%mHF  6pv@%#%#hgfZ@+#h-KJ.jm#@",
"@@7o+@@zPG#xib%*o@ *h#1pf++6Y+ jNj@GPk@#mN@xp:sHG@"
};
