/* XPM */
static char *_35bd1e30bbd4141afc7ac4654c76632NWihRThSLf188Jj6[] = {
/* columns rows colors chars-per-pixel */
"50 50 238 2 ",
"   c None",
".  c #030201",
"X  c #0D0708",
"o  c #170806",
"O  c #161405",
"+  c #1D0D13",
"@  c #191817",
"#  c #280308",
"$  c #36050B",
"%  c #26180D",
"&  c #340016",
"*  c #350418",
"=  c #28151A",
"-  c #341A19",
";  c #2B0010",
":  c #322016",
">  c #261C21",
",  c #3E1D29",
"<  c #3E0122",
"1  c #192322",
"2  c #282626",
"3  c #35282B",
"4  c #363433",
"5  c #2B3220",
"6  c #440A1A",
"7  c #470A16",
"8  c #45291E",
"9  c #470B24",
"0  c #451426",
"q  c #671A3A",
"w  c #4A2432",
"e  c #452A36",
"r  c #562834",
"t  c #47363A",
"y  c #4C2D2D",
"u  c #612A39",
"i  c #6B343D",
"p  c #4A473E",
"a  c #3E3F41",
"s  c #583B46",
"d  c #5F2440",
"f  c #642C45",
"g  c #673947",
"h  c #703747",
"j  c #3F4845",
"k  c #4C4143",
"l  c #4A4345",
"z  c #594747",
"x  c #5D5A5B",
"c  c #5D5456",
"v  c #57564C",
"b  c #65444A",
"n  c #664D55",
"m  c #76455B",
"M  c #665C5E",
"N  c #78535C",
"B  c #78434D",
"V  c #5F624F",
"C  c #75615A",
"Z  c #745B65",
"A  c #5E6462",
"S  c #686466",
"D  c #7A7363",
"F  c #7A6C71",
"G  c #7C7A7A",
"H  c #7C7575",
"J  c #766C6D",
"K  c #8B4F5B",
"L  c #9C5978",
"P  c #825967",
"I  c #A65D7A",
"U  c #B2486C",
"Y  c #847B7E",
"T  c #877577",
"R  c #93757E",
"E  c #87706A",
"W  c #B76B77",
"Q  c #7D807A",
"!  c #8D8976",
"~  c #887E80",
"^  c #917083",
"/  c #B76989",
"(  c #B97881",
")  c #AB7C90",
"_  c #CA668A",
"`  c #D96388",
"'  c #C77899",
"]  c #DA7695",
"[  c #D06F8E",
"{  c #E57997",
"}  c #E46B94",
"|  c #DE7FA1",
" . c #EB7AA3",
".. c #E17DA3",
"X. c #F67AA6",
"o. c #858383",
"O. c #8C8586",
"+. c #8D8689",
"@. c #8D8B8C",
"#. c #888A87",
"$. c #93868A",
"%. c #938C8C",
"&. c #988889",
"*. c #8C918D",
"=. c #9A918E",
"-. c #979287",
";. c #948D92",
":. c #9A8D93",
">. c #998B97",
",. c #8C9495",
"<. c #8B9999",
"1. c #949394",
"2. c #9B9395",
"3. c #969896",
"4. c #9C949B",
"5. c #969A98",
"6. c #9B9B9B",
"7. c #9C9B96",
"8. c #8E8C91",
"9. c #A88A96",
"0. c #B68B99",
"q. c #A39696",
"w. c #A3959C",
"e. c #A39B9E",
"r. c #AB9C9C",
"t. c #A99A96",
"y. c #B28992",
"u. c #9CA29F",
"i. c #92A19E",
"p. c #B6AC9B",
"a. c #AEA99E",
"s. c #9C9CA2",
"d. c #9A98A0",
"f. c #A49DA1",
"g. c #AB9CA3",
"h. c #A598A6",
"j. c #B79BA5",
"k. c #BC8CA6",
"l. c #9BA4A5",
"z. c #92A0A0",
"x. c #A4A2A3",
"c. c #ABA1A5",
"v. c #A7A8A8",
"b. c #B6A7AA",
"n. c #ADB0AE",
"m. c #BBACB3",
"M. c #B7B4B3",
"N. c #BAB7A4",
"B. c #CC858D",
"V. c #DA8C8B",
"C. c #D1858F",
"Z. c #C88499",
"A. c #DB8395",
"S. c #D7889C",
"D. c #DA989B",
"F. c #C39691",
"G. c #E48B8E",
"H. c #E3839C",
"J. c #EC889C",
"K. c #F6879D",
"L. c #E6999A",
"P. c #C7A299",
"I. c #DEA498",
"U. c #E6A59A",
"Y. c #CA8AA6",
"T. c #DA88A7",
"R. c #D896A8",
"E. c #D891B2",
"W. c #E285A5",
"Q. c #EB84A3",
"!. c #E28BA3",
"~. c #ED8DAA",
"^. c #E889A6",
"/. c #F58BAA",
"(. c #F88BA9",
"). c #EC9CAB",
"_. c #E896A7",
"`. c #F394AD",
"'. c #FA93AB",
"]. c #F999A7",
"[. c #E78CB2",
"{. c #F88AB1",
"}. c #EB95B3",
"|. c #E899B5",
" X c #FD9BB5",
".X c #FC93BB",
"XX c #FF9ABC",
"oX c #F398B6",
"OX c #DDA5A6",
"+X c #C7B8B8",
"@X c #D9BBB1",
"#X c #CDAEAB",
"$X c #F7A1AD",
"%X c #E7B3A8",
"&X c #EBA2BB",
"*X c #E5A7B6",
"=X c #FCA4BA",
"-X c #F4ACBB",
";X c #FBA8B9",
":X c #E6BAB4",
">X c #FBB6B8",
",X c #EFACAD",
"<X c #DFC5B8",
"1X c #E7C6BD",
"2X c #FAC8BA",
"3X c #F2D0B7",
"4X c #FF9DC7",
"5X c #D6B7C2",
"6X c #C7BEC1",
"7X c #F9A8C6",
"8X c #F8BAC6",
"9X c #E2B4C1",
"0X c #BDC1C0",
"qX c #D7C5CC",
"wX c #D9D4D6",
"eX c #CFC8CA",
"rX c #F9CBC6",
"tX c #E8D5C4",
"yX c #FAD7C7",
"uX c #FDDCD4",
"iX c #FBD5D7",
"pX c #ECD4CC",
"aX c #F8E5CD",
"sX c #FEE3D4",
"dX c #FDEAD6",
"fX c #FFE4D9",
"gX c #FFE9DC",
"hX c #F6E1D0",
"jX c #FEF7DB",
"kX c #EBE2CF",
"lX c #FDDEE4",
"zX c #E5E2E3",
"xX c #FFEDE2",
"cX c #FFEAED",
"vX c #FFF3E3",
"bX c #FFF8EA",
"nX c #FDFBF8",
"mX c #FFEDF1",
/* pixels */
"                                                                                                    ",
"                                                                                                    ",
"                                                                                                    ",
"                                                                                                    ",
"                                                                                                    ",
"                                                                                                    ",
"                                              nXn.e.$.w.p.9.0.qX                                    ",
"                                          M.M.v.3 t w - 6 6 6 r m.0Xx.                              ",
"                                        H z k z lXiXiX*XR.-X).W r w t 9.q.                          ",
"                                    D % C cXiXlX8XOX_.-X).B.D.-XR.oX&X9 0 R                         ",
"                                  O E bXrXrX).C.T.oX;X8X8XU.( W '.{.U oX&Xr )                       ",
"                                ! jXdX1XD.B.~.'./.^. XA.B.K $ i { X.{._ ' *Xg o > S                 ",
"                              ! jXaXaX%X>X$XK.{ { Q.!.-Xh y #XK 7  .(.).E.OXw n m.c c               ",
"                          %   hXjX3XdXyX;XJ.K.4X.X{.-XY.g z =.! 0 E.' Z.0.j.0 N +Xs z               ",
"                              aX2XyX>XU._.J./.{ [ / / m b =.v.*.J + 3 X = = F g.;.6.A 2             ",
"                        %   pX1XD.L.V.L._.[.W.oXq * & w F x.3.u.,.A @.A @.M Y x.;.l.x s wX          ",
"                        y P.%XD.)._.H.W.T.E.| E.k.j., n g.4.1.s.6.,.x.1.6.3.l.6.@.@.x.G . 2         ",
"                      :   sX%XL.J.{ ] [.[./ < ; < > s T g.4.4.4.x.x.+.3.6.@.x.@.x.x.x.v 2 zX        ",
"                      o @XsX2XB.J.] ] ..}.7XL 0 Z n n r.O.w.eXw.@ x.6.1.x.v.~ eXY 4 M.H 2 zX        ",
"                    @ O 1XgX2X2X]./.(. .T.E.*X# 9.b :.q.r.$.F + + c.$.g.X J wXs . l d.4.~ o         ",
"                @ 4 X N.aXrXjX2X].K.(.(.oX|.E.* E M E q.r.+Xt.^ :.q.m.X s + S e.O.&.M.c.T           ",
"                  @ O kXdXdXuX>X].K.J.J.J.' u N 9.t.=.%.m.t.+Xb.:.;.2.T O.q.~ 4.:.g.g.eXY           ",
"        X         p O <XdXaXU.U.G.K.(.].|.Y.& 0.j.=.7.u.;.b.$.9.4.b.O.eX2.;.:.b.e.2.f.e.S           ",
"              5 X % . <XaX%X%XV.G.=X X~._.Z.& R r.1.*.v.8.>.m.>.f.%.e.+.4.x.;.3.4.e.e.2.O.          ",
"    @       X 4     # yXsXI.U.G.$X7XXX| 4X) & 9.4.@.l.l.,.s.d.w.d.6.6.6.3.3.6.6.1.1.e.l.S           ",
"  1 @   4           - P.gXI.U.G.K. XoX| [.E.* ^ h.x.,.z.l.1.h.h.d.6.6.6.3.6.3.6.3.n.1.6.G           ",
"    l @ l           % uXxX2XL.L.L.~.[..X[.' 9 ) 4.v.,.<.z.d.h.>.5.3.3.5.6.3.3.5.1.l.o.#.            ",
"                    - 8 :XsX2X>X).`..X..4X| ; k.h.%.l.z.<.v.h.d.s.5.3.3.6.6.3.1.1.#.u.1.            ",
"                    X o 1XxX2XuX8X`.Q.Q..X[.I u 9.%.u.5.d.s.>.h.6.3.1.3.6.3.1.,.@.G 3.              ",
"                      % N.aXbXsX8XH. ..XX.[.4X& P b.*.Q ,.;.$.>.;.@.%.@.@.@.+.@.#.o.o.              ",
"                      5 V kX3XtX).H.XX` X.4X_ I g R ! H ! $.=.~ O.O.#.O.O.O.+.@.o.@.~               ",
"                      . . N.bX@XB.'.{ ` }  .XX~.K r T b.$.O.$.$.O.+.$.%.+.%.;.3.J H                 ",
"                          J <X+XD.H. X(.(./.{.}.}.L f w n h.>.h.&.&.q.=.n #.x 4 .                   ",
"                          o   uXD.$XA.A.H.H.^.^...7XL f m s s e s z z - + 3 X = S                   ",
"                            z   gXF.OXrX-X).!.=X' !.[.7XI 6 h u 6 u g g s t e v.                    ",
"                                p.bXxXuXiXy.D.S.C.T.T.[.T.] T.-X*X&X8XrX9X5X5X                      ",
"                                  ! a.kXxXqX:X8X8X_.D.^.H.'.[ G.!.S.8XR.*X                          ",
"                                    V ! t.nXuXiXcX*XR.)._.]  X).).*XR.                              ",
"                                              E iXmX8X*XiX>X).Z.B                                   ",
"                                                                                                    ",
"                                                                                                    ",
"                                                                                                    ",
"                                                                                                    ",
"                                                                                                    ",
"                                                                                                    ",
"                                                                                                    ",
"                                                                                                    ",
"                                                                                                    ",
"                                                                                                    ",
"                                                                                                    "
};