/* XPM */
static char *_86c888d97174737ac5920594f0c44d9lMrcz9OpQmlNh01l[] = {
/* columns rows colors chars-per-pixel */
"50 50 229 2 ",
"   c #0C1914",
".  c #141A10",
"X  c #261B1A",
"o  c #311E1B",
"O  c #04271C",
"+  c #032B1E",
"@  c #182219",
"#  c #02311F",
"$  c #0A331E",
"%  c #0D3B1F",
"&  c #113B1C",
"*  c #25261B",
"=  c #27391D",
"-  c #301C22",
";  c #002721",
":  c #022C22",
">  c #182923",
",  c #043423",
"<  c #093521",
"1  c #063B25",
"2  c #0A3C23",
"3  c #0B362A",
"4  c #123727",
"5  c #133C22",
"6  c #193A34",
"7  c #262925",
"8  c #352B25",
"9  c #33302D",
"0  c #39342A",
"q  c #2E3632",
"w  c #383635",
"e  c #49172B",
"r  c #521F34",
"t  c #442E36",
"y  c #582639",
"u  c #4C3131",
"i  c #47353C",
"p  c #662A3B",
"a  c #14431D",
"s  c #18471D",
"d  c #1B4C1E",
"f  c #1D521F",
"g  c #1E591D",
"h  c #22551D",
"j  c #2A541C",
"k  c #255B1E",
"l  c #295D1C",
"z  c #26601E",
"x  c #2C641E",
"c  c #2F691E",
"v  c #32661C",
"b  c #31691D",
"n  c #386C19",
"m  c #074125",
"M  c #0C4325",
"N  c #0E4926",
"B  c #0B4528",
"V  c #0E4A29",
"C  c #124421",
"Z  c #144B24",
"A  c #194D21",
"S  c #184528",
"D  c #124D28",
"F  c #155025",
"G  c #1B5323",
"H  c #1D5A26",
"J  c #145229",
"K  c #1A5628",
"L  c #1C5A29",
"P  c #1B4533",
"I  c #205621",
"U  c #225C22",
"Y  c #2C5B27",
"T  c #2E552D",
"R  c #244838",
"E  c #364535",
"W  c #285439",
"Q  c #256122",
"!  c #276424",
"~  c #2A6421",
"^  c #336328",
"/  c #386536",
"(  c #484431",
")  c #48743A",
"_  c #5A3643",
"`  c #693945",
"'  c #71364A",
"]  c #763D53",
"[  c #2B5244",
"{  c #385947",
"}  c #5A454A",
"|  c #4B5144",
" . c #585855",
".. c #66444C",
"X. c #694B54",
"o. c #764857",
"O. c #685559",
"+. c #75535B",
"@. c #52684A",
"#. c #656658",
"$. c #6C5960",
"%. c #765A62",
"&. c #6C6365",
"*. c #666966",
"=. c #766769",
"-. c #71746C",
";. c #786E71",
":. c #747372",
">. c #7A7977",
",. c #884C5A",
"<. c #93546A",
"1. c #A45C7A",
"2. c #81656C",
"3. c #86776F",
"4. c #876975",
"5. c #877678",
"6. c #9C777E",
"7. c #B06B76",
"8. c #79827C",
"9. c #878678",
"0. c #8F8B78",
"q. c #976E81",
"w. c #887D81",
"e. c #9A7684",
"r. c #AF708A",
"t. c #B47489",
"y. c #BC7794",
"u. c #CA6988",
"i. c #D1758C",
"p. c #C67693",
"a. c #D67598",
"s. c #DC7A99",
"d. c #E26E95",
"f. c #E4799A",
"g. c #D57CA1",
"h. c #EA7CA2",
"j. c #848784",
"k. c #8C8485",
"l. c #8E8689",
"z. c #8D8B8C",
"x. c #968689",
"c. c #92858C",
"v. c #948A8C",
"b. c #9A958C",
"n. c #938D92",
"m. c #978A95",
"M. c #9B8E93",
"N. c #8D9492",
"B. c #949494",
"V. c #9B9395",
"C. c #969896",
"Z. c #999896",
"A. c #949699",
"S. c #9C959B",
"D. c #949B9C",
"F. c #9A9A9B",
"G. c #AF8B91",
"H. c #A69897",
"J. c #A2959A",
"K. c #A2999C",
"L. c #9FA59F",
"P. c #A8A598",
"I. c #9C9BA0",
"U. c #A396A2",
"Y. c #A69CA2",
"T. c #B19BA2",
"R. c #9BA1A1",
"E. c #AAA3A6",
"W. c #B6A9A6",
"Q. c #B7B1B0",
"!. c #D68A8F",
"~. c #C78597",
"^. c #D4889C",
"/. c #CA939E",
"(. c #D7939A",
"). c #E7889B",
"_. c #F3899E",
"`. c #E49698",
"'. c #C8A69E",
"]. c #E5A39C",
"[. c #DA89A6",
"{. c #CB9BA4",
"}. c #DA95A5",
"|. c #EC84A3",
" X c #E58BA2",
".X c #EB8AA2",
"XX c #E685A8",
"oX c #E28DAD",
"OX c #EC8DAA",
"+X c #F284A7",
"@X c #F48AA3",
"#X c #F38BAC",
"$X c #E494A3",
"%X c #EA94AD",
"&X c #E79BA9",
"*X c #F498A6",
"=X c #F293AC",
"-X c #EA8EB3",
";X c #F48DB3",
":X c #E796B4",
">X c #F796B5",
",X c #CBAEA5",
"<X c #DBACAC",
"1X c #C5B1A5",
"2X c #D6B6AC",
"3X c #D5AAB2",
"4X c #D7B9B9",
"5X c #E5A6A5",
"6X c #F1ABAF",
"7X c #E8B5AA",
"8X c #ECAAB6",
"9X c #F4A8B8",
"0X c #E7BBB7",
"qX c #F4B7B8",
"wX c #CEC5B2",
"eX c #D9C9B7",
"rX c #E5CCBF",
"tX c #F7C8BB",
"yX c #E8B8C2",
"uX c #F4B9C3",
"iX c #D8C9C7",
"pX c #F3C6C7",
"aX c #E8D9C6",
"sX c #F7D7C7",
"dX c #FADCCC",
"fX c #F7DDD3",
"gX c #F5E2CD",
"hX c #FCE7D5",
"jX c #FEDBE1",
/* pixels */
"Z U K B B M , : A I 1 , , , , 1 , , D L J , : , 1 1 , 3 , , , B F U J B I & M L L 1 : : 1 1 , 2 G 2 ",
"x Q Z , V H A : : 2 A U J B G U D J ~ z 1 , : : , F U D : , , , , I ~ C : : f x F , : 1 M N 1 1 2 2 ",
"C M , : < h c d O a c k B 2 U k C l c Z , : : : , k U M 1 N N , O < D M : O 2 s , : : M Q U 2 D J 2 ",
"M M J D , M z l $ d k 2 : 1 M < , % 1 , : , V J Z 2 < 2 U ! Z , , , 1 1 3 C J V , ; : 2 G b l A Q Q ",
"l 2 G c U M 2 s , 2 M , : 2 K K M , , , 2 M V g z a # k c g # # D L D 1 Z ~ I B B M : : 1 G h + A ~ ",
"s : , A b d : , 1 B J B : , G ~ A < G U D 1 , W / / R T T R 6 P M k l % 1 A < , J U A : : 2 N N M A ",
"D 2 : : d d < 1 1 m m m 1 1 N C 1 $ l f 1 P { Q.b.8.;.>.5.2.q.z.[ [ W : , N B , , G U 2 , A Q K 1 B ",
"U ~ C : , 1 1 2 D K B , 1 , N K M 1 , , R 9.D.F.&.#.X._ ` ` ` o.w.N.8./ P B D B , 1 C V M G G < : : ",
"2 A N M M 1 , 2 x z 1 , 1 , # h ^ I 3 > #.;.=.>.2X4X3X{.p.^.~.7.o.+.$.4.-.q C U J 1 1 Z H G < , , : ",
"2 < A Q K 1 : 1 A 2 , N D B , , k v | ( 5.4XyX0XuX8X9XqX6X(.`.$X^.s.p.] ..O./ ~ Z : , 2 h b f M V V ",
", A c k < : , 2 , $ f Q D 1 m , S ( 6.eX0XpX9X$XoX%X9X9XqX!.7.7.#X#Xu.a.y.,.%.S M S 2 : , h z G x U ",
", h x 2 : , K K < d b U 1 , N / 0.wXaXrX5X(..X|..XOX=X X~.,.p o.u.h.h.a.[.G.o.- w  .T % : , , 2 f M ",
": C Z , : : C ~ G d G m , ; S 0.aXhXgXtX6X*X_.).|.|.%X}.,.( 0.,.' d.#X X}./._ ..v.&.| x + 1 M M 2 , ",
"; , , , : : 1 Z M 1 B , :   P wXhXgXsXtX9X@X_.;X;X=X:Xy.` X.G.3._ q.t.r.t.e._ =.T.O.} j + , G Q D 1 ",
"M F D , , , B 1 , 1 K Z $ O { eXtXtXtX].$X.X|.h.u.1.1.,.+.k.P.z.$._ i 9 w _ %.m.A.z. .q R B % k d 1 ",
"x ~ D M F H D 2 N N G l * E W.0X].].!.`.%XoXOXh.,.y e u ;.F.F.F.j.*.;.*.*.*.w.I.n.A.&.O.j.P 1 N , : ",
"d N m k b G , , d l f s ( 0.7X(.`.$X).[.oXg.p.p.r.=._ X.m.S.m.I.D.N.F.B.Z.B.F.F.z.B.B.&.w q 1 1 1 , ",
"1 1 1 l U N 1 , # g j * #.eX7X`.`.f.s.XXoXt._ e r _ _ ;.S.I.U.I.B.D.B.A.F.B.F.F.F.Z.K. .w L.[ # J J ",
"1 1 1 1 M B K G # # & * G.gXtX`.).f.s.h.:X:X<.e } ..$.m.m.J.Q.>._ z.F.A.v.F.J.Y.:. .F.:. .F.W a ~ Q ",
"1 J k A 1 , A x h 5 . u wXhXtXtX*X+X|.h.[.:X~.y =.%.q.U.J.m.5.t w v.S.5.w &.E.=.7 } A.V.=.q C c k M ",
"1 N k k , : : C = * * b.sXsXhXtX*X@X@X+XOX:Xy.y 2.=.3.V.T.W.M.4.w.J.M.i t i ;.c.5.l.W.E.>.6 % s < : ",
"1 B Z , O : , , 5 @ 8 wXhXgXtXtX*X_._._..Xp.] +.x.M.v.V.E.W.W.W.V.V.M.5.5.w.w.J.V.J.E.Q.:.6 M D 2 , ",
", J L 2   # I f & 8 8 1XgXgX7X`.`._.@X*X%Xt.y 6.T.G.Z.F.S.T.J.G.J.K.V.W.F.S.M.K.J.J.Y.K.*.3 M Q x d ",
"; $ h x s % S = @ . * ,XgX7X].`.`.*X>X#X%Xt.y 4.H.b.N.I.m.S.Y.S.S.V.S.Z.S.F.B.A.S.S.K.V.:.P m N k n ",
": O @ h Y #   7 & $ 8 ,XsX].].`.;XuX>X-X-Xr.e q.S.B.D.R.D.I.I.I.S.C.F.C.C.S.F.F.B.C.K.D.*.^ G , < l ",
"G > @ > q s G D 2 a u '.dX7X`.`.+X>X-Xh.-Xy.r q.U.F.N.D.D.D.U.I.D.F.F.F.C.C.C.C.F.E.C.N.*.Y G , 1 2 ",
"U Y q > w ~ U M # O 0 '.hXtX].`.$X#X-X;X-Xy.y q.U.K.A.D.I.I.U.m.F.C.C.C.F.A.C.C.A.D.z.8.[ , 2 D V , ",
"2 A 5 5 v k 1 , + & X ..2XdXtX6X&X=X;Xh.;Xp.p q.U.B.R.D.D.I.U.I.F.C.C.C.F.F.B.B.N.z.D.>.3 + I U N , ",
", m M N h 2 : : C k . o ,XhXsXdXuX=X|.+X>X-X1.] e.V.D.A.D.I.m.I.S.B.B.B.C.A.n.N.j.j.j.R ; f b G , : ",
"1 D H F 2 1 B C n z $ 8 P.fXhXgXuX|.h.;Xh.;Xg.p %.H.n.9.z.n.m.m.n.z.z.z.l.z.z.z.j.k.>.P , U h < 1 1 ",
", 2 l v A 1 , M k M 1 * #.eXsXrX5X.X#Xd.h.;Xs.<.o.4.9.9.9.c.l.w.k.k.l.j.j.l.l.z.j.k.-.3 : 2 2 1 V D ",
": : 2 z l , 1 2 1 1 A . * P.hX4X^..Xf.d.f.h.;X X<.` 4.x.c.l.c.m.l.c.v.v.k.c.c.j.&.*.P : 2 J V 1 A ! ",
"1 1 1 N A 1 1 1 , : G h S &.1X4X}.`.#X+X+X+X;XOX[.1.] _ $.c.e.m.w.l.v.5.$.:. .w 7 R V Z z U , , M G ",
"Q H M , < D B 1 2 1 < A s @ | W.5X`.).(.). X XOXXX[.q.] o._ } _ _ } } t - 9 X 9 | I 2 A U 2 : , B 2 ",
"f c Z , G U M : Z U G 2 O & E 8.eX<X<XqX8X$XoX%Xa.[.XXoX1.p ' ' y ` o...} _ } :./ 2 : 1 B 2 V Z 1 : ",
", C M k v A , , , I b k $ g c z C.aXgXfXpX{.(.}.^.[.[.-X^.i.i.}.(.}.8X8X3XT.v.) M N D F 1 1 G ~ C : ",
"1 1 N l d , 1 2 : # h x a g g m W 0.W.rXhXiXtXuXuX}.}.[.).|.^.).$X:X9X{.G.@.P # # G ~ C : : M k C , ",
"F 1 , N N 3 , , : : # B # # , , d ^ @.9.I.iXeXpXjXuX5X:X%X X=X$X(./.x.@./ J 1 : : 5 A < : : , , Z U ",
"$ , A Q K , # M Z M , , N J m , < M < 3 6 W ) 3.4XiX3X{.3X<X^.t.+.R T b g D K M : M N 1 : , 1 M ~ v ",
": : d I M % k ~ K 1 , , Z ~ k , , 1 , : , 1 Z S / ) / [ W R R S 4 + f k Z z H M C x U M , 1 m A l 2 ",
", M 2 2 2 G b G 1 1 M 1 1 d c h , , m 1 2 L L M a s m C H D , , M B 2 , M G 2 < v l M C U G 1 , < , ",
"1 F U A , 2 C + < U H B 1 , a a , N J B , C ~ l $ # C c x Z , : , J Q G M , : C U C ; , I ^ d , B J ",
"A , h c d : , : C Q A 1 , : : , G x G 1 , , A c s # s x F 1 , : , 1 f c h + : 2 N , : , M U x M G ~ ",
"A : 2 U h 2 K G C 2 N M , : , A b k # , 2 , , M N 1 1 $ # m G K B , $ j l : : : Z G M , 1 N Z 2 < C ",
"2 2 , , 1 1 G c d M H K 1 , , s k % $ G H N 1 Z L H B , # h b f , 3 1 M C < : : 5 z l < M U H 1 : : ",
"~ D : ; : 1 , % d z x M , 1 M 1 , , h b I 1 , A z M 1 2 % x G < : 1 J N : $ M N 2 2 2 2 x z C , M Z ",
"I : ; 2 K D , : d v C : : 2 K D : , k G , ; : : , , 1 , : % M , M k U 2 : A ~ G , , 1 Z l C , C ~ ~ ",
"1 : 2 ~ z M : , % s B 2 , , G c G M N , : 1 2 : : N H A : , 1 1 % f 5 ; & b I # + 1 B Z 2 , 1 Z G A ",
": < j c & : , B N 1 N H G M M k c C , , 1 V Q H , $ h c A , , 1 1 2 1 M A h $ : 1 B B L H 2 B D 2 , ",
": < h C ; : : Z ~ H 1 d c f 1 2 a + : , 1 1 f c C : : l v + + N J B 1 H Q Z : , V V , A b a N Q h , "
};
