/* XPM */
static char *af62cc550bee4d71d9286a5dff2ea8a3NzlTw6QmfQ5hZGZT[] = {
/* columns rows colors chars-per-pixel */
"50 50 17 1 ",
"  c #383F40",
". c #382B2F",
"X c #141413",
"o c black",
"O c #464D4F",
"+ c #4B3F38",
"@ c #28221F",
"# c #62797E",
"$ c #536265",
"% c #251713",
"& c #5B1A10",
"* c #866D0E",
"= c #BC240D",
"- c #1C1C1B",
"; c #D0B702",
": c #292A28",
"> c white",
/* pixels */
"  .       ..    XoO               Xo  ...         ",
" .X.            XoO               oX   ..         ",
"O+++OOOOOOOOOOOO@XO               XoOOO++OOOOOOOOO",
" ...    O O     XoO               oX   .      O O ",
"O++OOOOOOOOOOOOO@X#OOOOOOOOOOOOOOOXoOOOO+OOOOOOOOO",
"O+++OOOOOOOOOOOOXoO       O O  O  o@OOO+OOOOOOOOOO",
"O++OOOOOOOOOOOOO@X#OOOOOOOOOOOOOOO@XOOOOOOOOOOOOOO",
"O++OOOOOOOOOOOOO@X#OOOOOOOOOOOOOOOX@OOOOOOOOOOOOOO",
"OO+OOOOOOOOOOOOO@X#OOOOOOOOOOOOOOO@XOOOOOOOOOOOOOO",
"O++OOOOOOOOOOOOO@X#OOOOOOOOOOOOOOOX@OOOOOOOOOOOOOO",
"OO+OOOOOOOOOOOOO@X#OOOOOOOOOOOOOOO@XOOOOOOOOOOOOOO",
"OO+OOOOOOOOOOOOOXX#OOOOOOOOOOOOOOOX@OOOOOOOOOOOOOO",
"OOOOOOOOOOOOOOOO@X#OOOO++OOOOOOOOO@@OOOOOOOOOOOOOO",
"OO+OOOOOOOOOOOOOXX$OOOO++OOOOOOOOOX@OOOOOOOOOOOOOO",
"OOOOOOOOOOOOOOOO@X#OOOO+OOOOOOOOOO@@OOOOOOOOOO O O",
"OOOOOOOOOOOOOOOOXX$OOOOO+OOOOOOOOOX@OOOOOOOOO O OO",
"OOOOOOOOOOOOOOOO@X#OOOO+OOOOOOOOOO@@OOOOOO   O OOO",
"OOOOOOOOOOOOOOOOXX$OOOOOOOOOOOOOO X@OOO  ..$OOOOOO",
"OOOOOOOOOOOOOOOOXX$OOOOOOOOOOOOOOX@   ..#$OOOOOOOO",
"OOOOOOOOOOOOOOOOXX$OOOOOOOOOOOOOOX@$##$OOOOOOOOOOO",
"OOOOOOOOOOOOOOOOXX$OOOOOOOOOOOOOOX@OOOOOOOOOOOOOOO",
"OOOOOOOOOOOOOOOOXX$OOOOOOOOOOOOOO @ OOOOOOOOOOOOOO",
"OOOOOOOOOOOOOOOOXXOOOOOOOOOOOOOOOOX@OOOOOOOOOOOOOO",
"OOOOOOOOOOOOOOOOXX$OOOOOOOOOOOOOOO@@OOOOOOOOOOOOOO",
"OOOOOOOOOOOOOOOOXXOOOOOOOOOOOOOOOOX@OOOOOOOOOOOOOO",
"OOOOOOOOOOOOOOOOX@$OOOOOOOOOOOOOOO@@OOOOOOOOOOOOOO",
"OOOOOO$ OOOOOOOO@XOOOOOOOOOOOOOOOO@@OOOOOOOOOOOOOO",
"OOOOO$ OOO.# OOOX@OOOOOOOOOOOOOOOO@@OO.# OOOOOOOOO",
"OOO$#o OOO.  OOO@XOOOOOOOOOOOOOOOO@@OO.  OOOOOOOOO",
"O$#ooo$OOO..OOOOX@OOOOOOOOOOOOOOOO@@OO..OOOOOOOOOO",
"#oooo%o$$OOOOOOO@@OO#OOOOOOOOOO#OO@@OOOOOOOOOOOOOO",
"o%oXo%ooo####O#O@@O.OOOOOOOOOO.OOO@@O#O######O#O#O",
"o%XXo&o%ooooooooo@OOOOOOOOOOOOOOOO@ooooooooooooooo",
"o*XXo&X%ooooooooooOO##########O#OOoooooooooooooooo",
"o*XXo=X*oX-XoX-XoooooooooooooooooooooX-XXX-XoX-XXX",
"o;XXo=X*o::Xo::-XooooooooooooooooooXo::-X::Xo::-X:",
"X;XXX=X;o::Xo::--:XXoX-XXX-XoX-XXX-Xo::--::Xo::--:",
"X;%Xo=X;X::Xo::--::Xo::--::Xo::--::Xo::--::Xo::--:",
"-*;%X=o*-::-X::--::-X::--::-X::--::-X::--::-X::--:",
"-o*;*=*o-::Xo::--::Xo::--::Xo::--::Xo::--::Xo::--:",
"-:ooo=o--::-X::--::-X::--::-X::--::-X::--::-X::--:",
"-::-X=X--::-o::--::-o::--::-o::--::-o::--::-o::--:",
"=:-X=o---::-X::--::-X::--::-X::--::-X::--::-X::--:",
"o===oX:--::-X::--::-X::--::-X::--::-X::--::-X::--:",
"-XooX:---::XX::--::XX:---::XX::--::XX:---::XX::--:",
"-::-X::--::-X::--::-X::--::-X::--::-X::--::-X::--:",
"-:-Xo:---:-Xo:---:-Xo:---:-Xo:---:-Xo:---:-Xo:---:",
"-::XX-:--::XX-:--::XX-:--::XX-:--::XX-:--::XX-:--:",
"X:-Xo:--X:-Xo:--X:-Xo:--X:-Xo:--X:-Xo:--X:-Xo:--X:",
"o--oo--Xo--oo--Xo--oo--Xo--oo--Xo--oo--Xo--oo--Xo-"
};
