/* XPM */
static char *_35eb7f681294d4fe97a0adfb5b7b9fawzUAWLkZgd25Me4z[] = {
/* columns rows colors chars-per-pixel */
"50 50 5 1 ",
"  c None",
". c #191716",
"X c #2A2E31",
"o c #3B454A",
"O c #495960",
/* pixels */
"   .XOX.   .XOX.   .XOX.   .XOX.   .XOX.   .XOX.  ",
"    XoX     XoX     XoX     XoX     XoX     XoX   ",
"    oX.     oX.     oX.     oX.     oX.     oX.   ",
"   OX.XO   OX.XO   OX.XO   OX.XO   OX.XO   OX.XO  ",
"O OX. .XO OX. .XO OX. .XO OX. .XO OX. .XO OX. .XO ",
"XOX.   .XOX.   .XOX.   .XOX.   .XOX.   .XOX.   .XO",
"XoX     XoX     XoX     XoX     XoX     XoX     Xo",
"oX.     oX.     oX.     oX.     oX.     oX.     oX",
"X.XO   OX.XO   OX.XO   OX.XO   OX.XO   OX.XO   OX.",
". .XO OX. .XO OX. .XO OX. .XO OX. .XO OX. .XO OX. ",
"   .XOX.   .XOX.   .XOX.   .XOX.   .XOX.   .XOX.  ",
"    XoX     XoX     XoX     XoX     XoX     XoX   ",
"    oX.     oX.     oX.     oX.     oX.     oX.   ",
"   OX.XO   OX.XO   OX.XO   OX.XO   OX.XO   OX.XO  ",
"O OX. .XO OX. .XO OX. .XO OX. .XO OX. .XO OX. .XO ",
"XOX.   .XOX.   .XOX.   .XOX.   .XOX.   .XOX.   .XO",
"XoX     XoX     XoX     XoX     XoX     XoX     Xo",
"oX.     oX.     oX.     oX.     oX.     oX.     oX",
"X.XO   OX.XO   OX.XO   OX.XO   OX.XO   OX.XO   OX.",
". .XO OX. .XO OX. .XO OX. .XO OX. .XO OX. .XO OX. ",
"   .XOX.   .XOX.   .XOX.   .XOX.   .XOX.   .XOX.  ",
"    XoX     XoX     XoX     XoX     XoX     XoX   ",
"    oX.     oX.     oX.     oX.     oX.     oX.   ",
"   OX.XO   OX.XO   OX.XO   OX.XO   OX.XO   OX.XO  ",
"O OX. .XO OX. .XO OX. .XO OX. .XO OX. .XO OX. .XO ",
"XOX.   .XOX.   .XOX.   .XOX.   .XOX.   .XOX.   .XO",
"XoX     XoX     XoX     XoX     XoX     XoX     Xo",
"oX.     oX.     oX.     oX.     oX.     oX.     oX",
"X.XO   OX.XO   OX.XO   OX.XO   OX.XO   OX.XO   OX.",
". .XO OX. .XO OX. .XO OX. .XO OX. .XO OX. .XO OX. ",
"   .XOX.   .XOX.   .XOX.   .XOX.   .XOX.   .XOX.  ",
"    XoX     XoX     XoX     XoX     XoX     XoX   ",
"    oX.     oX.     oX.     oX.     oX.     oX.   ",
"   OX.XO   OX.XO   OX.XO   OX.XO   OX.XO   OX.XO  ",
"O OX. .XO OX. .XO OX. .XO OX. .XO OX. .XO OX. .XO ",
"XOX.   .XOX.   .XOX.   .XOX.   .XOX.   .XOX.   .XO",
"XoX     XoX     XoX     XoX     XoX     XoX     Xo",
"oX.     oX.     oX.     oX.     oX.     oX.     oX",
"X.XO   OX.XO   OX.XO   OX.XO   OX.XO   OX.XO   OX.",
". .XO OX. .XO OX. .XO OX. .XO OX. .XO OX. .XO OX. ",
"   .XOX.   .XOX.   .XOX.   .XOX.   .XOX.   .XOX.  ",
"    XoX     XoX     XoX     XoX     XoX     XoX   ",
"    oX.     oX.     oX.     oX.     oX.     oX.   ",
"   OX.XO   OX.XO   OX.XO   OX.XO   OX.XO   OX.XO  ",
"O OX. .XO OX. .XO OX. .XO OX. .XO OX. .XO OX. .XO ",
"XOX.   .XOX.   .XOX.   .XOX.   .XOX.   .XOX.   .XO",
"XoX     XoX     XoX     XoX     XoX     XoX     Xo",
"oX.     oX.     oX.     oX.     oX.     oX.     oX",
"X.XO   OX.XO   OX.XO   OX.XO   OX.XO   OX.XO   OX.",
". .XO OX. .XO OX. .XO OX. .XO OX. .XO OX. .XO OX. "
};
