/* XPM */
static char *result[] = {
/* columns rows colors chars-per-pixel */
"50 50 238 2 ",
"   c #001D17",
".  c #00250A",
"X  c #03380C",
"o  c #002313",
"O  c #012D14",
"+  c #00241B",
"@  c #002B1D",
"#  c #0D291E",
"$  c #013314",
"%  c #00331C",
"&  c #0C351F",
"*  c #023B1E",
"=  c #073B15",
"-  c #12391A",
";  c #102E1C",
":  c #001D21",
">  c #081E2A",
",  c #19163E",
"<  c #1E1C25",
"1  c #2B192F",
"2  c #002522",
"3  c #012C23",
"4  c #052D2B",
"5  c #0A2324",
"6  c #182825",
"7  c #023324",
"8  c #0A3422",
"9  c #053B25",
"0  c #0B3C23",
"q  c #033529",
"w  c #053C29",
"e  c #0A3C29",
"r  c #0F352A",
"t  c #113E21",
"y  c #183329",
"u  c #152837",
"i  c #183636",
"p  c #0E3038",
"a  c #2A2427",
"s  c #272835",
"d  c #273635",
"f  c #3A3932",
"g  c #332C33",
"h  c #4D2A3E",
"j  c #5D3139",
"k  c #532D39",
"l  c #12480E",
"z  c #01441A",
"x  c #09461A",
"c  c #14441E",
"v  c #1A4B1E",
"b  c #184919",
"n  c #0C571C",
"m  c #1D531E",
"M  c #1C5A1B",
"N  c #145519",
"B  c #104F0B",
"V  c #214D1D",
"C  c #20471A",
"Z  c #22551E",
"A  c #255B1E",
"S  c #295D1D",
"D  c #2B5617",
"F  c #305C17",
"G  c #186816",
"H  c #1D680D",
"J  c #25621E",
"K  c #2C631E",
"L  c #2C6B1D",
"P  c #286915",
"I  c #336C1E",
"U  c #3B6E1B",
"Y  c #35681A",
"T  c #35711E",
"R  c #3A741D",
"E  c #3E791D",
"W  c #397716",
"Q  c #2F6F13",
"!  c #054224",
"~  c #0B4325",
"^  c #064A24",
"/  c #0E4927",
"(  c #064229",
")  c #0A4429",
"_  c #0D4B2A",
"`  c #064C29",
"'  c #134422",
"]  c #144B24",
"[  c #1A4D22",
"{  c #124D2A",
"}  c #1B4728",
"|  c #0C5325",
" . c #155225",
".. c #1B5323",
"X. c #1D5B25",
"o. c #14532C",
"O. c #195529",
"+. c #1B5B2B",
"@. c #15592D",
"#. c #124632",
"$. c #175332",
"%. c #225621",
"&. c #235B22",
"*. c #255C26",
"=. c #264739",
"-. c #394938",
";. c #30522A",
":. c #1F612C",
">. c #1D6222",
",. c #1B6231",
"<. c #266224",
"1. c #2B6422",
"2. c #2D6B24",
"3. c #23632A",
"4. c #276929",
"5. c #2A692A",
"6. c #266927",
"7. c #326D22",
"8. c #386A24",
"9. c #357121",
"0. c #397222",
"q. c #2F7025",
"w. c #427517",
"e. c #447C1A",
"r. c #457919",
"t. c #495034",
"y. c #7F433D",
"u. c #417A22",
"i. c #4A6B2C",
"p. c #2F1E4C",
"a. c #193844",
"s. c #192C44",
"d. c #393447",
"f. c #25334D",
"g. c #363568",
"h. c #1A1249",
"j. c #471C40",
"k. c #4B2647",
"l. c #43285B",
"z. c #562955",
"x. c #51324A",
"c. c #603B52",
"v. c #733151",
"b. c #42196B",
"n. c #532371",
"m. c #4C2D64",
"M. c #6E3A6B",
"N. c #274A48",
"B. c #3D4B49",
"V. c #384761",
"C. c #525148",
"Z. c #6D504B",
"A. c #584468",
"S. c #404762",
"D. c #724B69",
"F. c #803D36",
"G. c #9C5C3E",
"H. c #B15B30",
"J. c #DE7F2C",
"K. c #E06A3C",
"L. c #983558",
"P. c #8E325B",
"I. c #972867",
"U. c #84356A",
"Y. c #AC346D",
"T. c #C53476",
"R. c #D33B77",
"E. c #9B4958",
"W. c #A1464E",
"Q. c #984873",
"!. c #944D70",
"~. c #AC5968",
"^. c #B6597B",
"/. c #B04A75",
"(. c #B4616D",
"). c #BA6F52",
"_. c #CE5152",
"`. c #E84F5F",
"'. c #D37051",
"]. c #F36A4B",
"[. c #CC4C6B",
"{. c #EC5D64",
"}. c #E34771",
"|. c #DE717A",
" X c #F2726B",
".X c #4A8119",
"XX c #FFBB07",
"oX c #FFB515",
"OX c #DD8328",
"+X c #F4892B",
"@X c #FC9729",
"#X c #E58A32",
"$X c #FFCC06",
"%X c #FFD200",
"&X c #FFC612",
"*X c #F69257",
"=X c #FB9D7B",
"-X c #F2906E",
";X c #FFB073",
":X c #462183",
">X c #5E3C87",
",X c #693784",
"<X c #793887",
"1X c #7532AE",
"2X c #7F4487",
"3X c #6C5085",
"4X c #7852A0",
"5X c #933B9F",
"6X c #8037AC",
"7X c #AC3FBF",
"8X c #F43F8A",
"9X c #924F85",
"0X c #AC5898",
"qX c #B04F95",
"wX c #896584",
"eX c #BA629C",
"rX c #9742AB",
"tX c #9349B6",
"yX c #A34AA9",
"uX c #FA5E97",
"iX c #E6528B",
"pX c #D0759A",
"aX c #E27885",
"sX c #C054B1",
"dX c #CF6DAF",
"fX c #E67CAA",
"gX c #CA5A90",
"hX c #8F3CC0",
"jX c #A13EC7",
"kX c #B63FE5",
"lX c #BA45DE",
"zX c #A940C7",
"xX c #C145E5",
"cX c #CC4FD4",
"vX c #ED82A8",
"bX c #FF9CA7",
"nX c #FE8DAC",
"mX c #FFA2A2",
/* pixels */
"0 3.@.) ) 9 $ + -.i.% 3 7 q 7 7 q 7 ~ 3.o.3 3 7 ) w 3 q 8 7 9 ) O.*.{ ) 1.' w *.3.w + 4 3Xd.s.* 1.8 ",
"R 7.] q O.6.c.j `.z.z 4.+.) ..4.o. .T K * 7 3 @ 7 X.4. .3 3 9 7 @ A E 0 2 : J P z w @ a.dX'.kXu 7 / ",
"0 0 7 2 2 M E.+X&Xy.8.K ~ 0 I K % U I ! % @ 2 2 3 R 1.9 q _ / 7 2 7 ..9 3 2 * Z.!.6 @ M.-XXXU.y @.7 ",
"9 ) @. .4 e # '.OXR.t.% 3 7 8 3 3 ~ 7 d dXM.| +.0 % 3 q 1.T ] 7 q 3 9 z 8 0 $.aX-Xz.. m.5XyXhXx 7.1.",
"I 9 O.L H ~ 8 I.< + 0 7 2 ~ 3.O.' w o A.bXyX! I I 8 7 K R X.7 7  .G e g.O.w.S x.L.y 3 + o g : 2 ] T ",
"b 2 7 t.wX- 2 $ %  .,.{ 7 3 ..E X.2 &.C b.d 3 8 I R q v v 7 3 % N.4XG.7X9 v @ o X <.[ 2 @ o ( _ ) ] ",
"{ e : dXmX:X= #.w 9 w ~ ) 7 ( ' 7 7 T [ O % 3 2 ~ ..o._ 3 + 2 @ p /.&X#Xd.` { 9 7 Z T 8 9XD.5.<.9 ) ",
"1.0.n z.5Xd ^ 0 / +.{ 3 ! 3 o.*.~ 7 7 @ r $.+.e 3 I 9.0 3 ) ) 4 . d. XQ.1Xz $.~ 3 4 z V.bXdXB.@ 3 3 ",
"3 Z ' % O 9 7 8 R 1.0 3 7 7 @ &.R X.7 2 &.R ' 9 ~ &.- 3 ) +.4.] o g.n.X - + ~ 6.+.) / - n.l.+ 7 7 3 ",
"/ 2 ] q.3.9 @ 0 ..9 2 _ o._ 7 3 1.w.3 2 ' ..2 9 o.) 3 w ( 3 A R ..% O ' ' 2 K T 8 2 7 2 = B [ ~ _ { ",
"7 ] R K 3 3 3 ( 7 2 &.9...* * % 7 A q 7 7 w ' I 1./ 7 3  .o.) &.W ( r : 2 5 ) / o.o.3 7 8 1.R ] I 1.",
"9 &.U 3 2 0 :.+.2 A E %.9 h M.B.;.+ 3 / r 8 W J 8 3 2 &.E X.7 6 C.@ 2 0 3.O.3 7  .T 7.8 2 7 7 8 K 7 ",
"3 ' / 7 % 2 - E ..v &.e % P.*X{./.$ [ 5.^ O Z.t.@ 2 2 t ] 7 + !.=Xv.= 8.I { e w 7 ] T Y : 0 ) q 7 7 ",
"2 2 7 7 7 7 9 ] 9 9 w 7 6 qXXX+Xj.@ 0.N P.W.].c.z #.{ 3 3 0 O D. Xx.P U 9 w &.9...7 ' S @ q 4.7. .w ",
"0 +.o.9 3 3 ) ) 3 ~ :. .. Y.L.8Xx.7 r @ k.+X$X_.i x 1.U { 9 8 O 6   Z 8 2 7 ~ K ..3 3 3 9 7 8 I ] w ",
"0.I / w ..4.{ w o.w v R &.o + a n 5.0 0 @ [.H.I.d @ t 1.7 3 &.w.m 3 3 3 3 ~ _ ( : 3 ] 4.+.! ) 0 @ 3 ",
"' / w %.R A @ 7 O.2.[ ] r.v 7 m R v 7 ( w k.a B % 2 9 _ ( c e...2 o.o.w 2 9 <.6.' w L P % 2 7 ) w 7 ",
") ! 8 U 1.w ( 7 2 A I 9 ..9 * u.O.% ( 0 3 @ x u.1.8 2.9.w ..<.3 1.9. .( 3 2 8 7.T ] i x.w *.) 3  .+.",
"7 9 9 3 0 ` n G 3 3 ~ ~ 3 + 5 pXeXr 7 w :.*.9 ] U ~ S & 7 w 3 7 K c 2 / 3.o.9 3 r.B 1XpXyX3X$ ' T K ",
"w +.4.' 9 8 E.t.J 0 ( ( e 9 =.fXdXs.% 3 - R <.w 7 7 q e 7 0 ( 7 2 2 3 7 *.E - 2 ~ =.9X%X'.b.b .X&.9 ",
"~ ~ K 0.O D.;X/.W v [ 9.+./ P , p.. 2 7 3 8 ] 9 9 1.9.{ 7 +.L >.3 % 3 w 0 ] 3 3 ) 5 lX~.cXf.$ ' 3 3 ",
"7 ( ( 8 3 g [.v.! A R &.) 7 7 % * ~ +.@.9 3 3 2 0 K [ 7 ) $ =.8.S 3 7 9 7 2 3 o.+.~   u l.3 { o.0 2 ",
"3 +.3.t 3 @ O = q A &.2 7 3.X.{ _ I T - 7 ~ { 7 3 3 q 7 ` f.vX0X*.9 ..4._ 2 3 ~ L R c 7   3 8 1.R ' ",
"3 # K I [ ) [ u.A 2 ) o.8 0 E %.S R 8 2 2 9 / 9 3 ) 3 t G C.fX0X4 1.R [ ! ( ) _ ) K w.7 / e ( ~ K e.",
"3 2 7 I Y 7 3 z 7 } R X.3 2 9 % & 8 7 ( 7 3 0 K &.3 - R 7.= , > x r.v : 0 7.2.8 7 / K w X.9.&.3 3 K ",
"+. .7 9 9 ' 3.B.f R.t.* ~ _ 4 3 2 w  .+.+.3 + ] E A V U ! e % + 0 &.9 2 & I 0 3 3 7 7 w w &.Z 7 0 w ",
"%.E t 2 m R *.R.@X@Xg ! w e 4.%.0 / R L O 9 e 7 c Y ~ ~ 3 _ / 8 ( ( 3 0 ( ! ( 7 3 &.4.0 9 7 4 _ _ 3 ",
"7 ..0 8 e.A 9 a @X+XR.{ 3 + ' E 1.9 - y Q.C.>.7 e +._ 7 %.2.[ ( ( 2 3 { ;.t.z 3 1.R m 7 3 2 %.7...7 ",
"7 w ( ~ A 3 @ s T.a 6 2 3 ( 7 0 r.t   M.;X[.2 7 ) 1.R & *.A 3 2 8 o.o.q iX(.Y.f W ] w q 2 Z R Z 3 3 ",
"q O.3...7 0 _ 0 - m x @ w / _ q [ 8 + 6 L.k 7 8 ( { J ~ 3 7 ( / 7.R x s ).%X`.h ! ..4.) 3 K &.2 0 ( ",
"w @ K 0.c w w 8 R 7 e 0 3 4.1...3 2 7 7 O + ~ <.6.0 2 7 9 7 2 R T * 9 h uXK.}.+ ] e.v 2 3 w w w _ _ ",
"7 3 % Q Q + 9 _ q e @._   7 I &.3 3 % w _ 0 K I ..2 ( +.{ 3 2 - ~ @ / ] < k.v.0 q 8 3 2 e o. .w ..7.",
"0 7 9 V.z.p ) w @ 2 &.R ..7 / 7 2 7 o.+.] / w.~ 2 8 ) ..R Z 7 3 3 7 3 Z Q b % 9 t +. .] 9.1.8 7 9 &.",
"4.*.z rXmXyX,X$ ( w 2 ..] ) w w 0 9 9 L R ] 3 2 3 q ! 3 v ] 7 ) ) w q 7 &.' w ' R 1.9 ] 1.3   q ) 9 ",
"..W -.0X$X'.p.@ [ q...7 3 7 m 2.X.) 3 3 1.U @ 3 + q 9 * 2 2 2 [ 2.6.9 ~ w 3 2 w.1.q + q w ) { _ 7 7 ",
"3 / 6 jXU.xXi % 3 %.0.1.3 F E &.w 3 3 7 z b % @ e ~ #.$. .3 ' E K ~ 3 3 ~ ( 7 S ) ) { @.r q <.9.' 2 ",
"7 9 ^ o 6 1 ! ~ 7 3 A U ( ..%.w 8 +.3.! g.M.s.N.>.#.pXeX8.m V S 3 3 7 3 q _ w q O M R -.|.[.r q.] 7 ",
"6.q 3 { / 9 q 7 2 3 @ ~ 3 7 9 7 Z E t o M.mXgXtXB f.vXsX=.W V 2 @ w ( ..2.+.w O m.A.l s.-X{.p 7 ~ <.",
"& 3 ..1.+.7 3 ) { ~ 9 7 { o.! 3 7 t 2 6 yXoX#Xp.% x , u   V M @ 9 ~ ..R S ) | N.bXfXf.z 1 a % ' I I ",
"2 + [ 7.0 7 A T X.~ 8 7 ] I &.3 9 e e   6XM.lXg.P 0.N 9 z 3 d #.9 2 D K 0 T L t 5X<X&.9 @ 9 ( ..U 7 ",
"w ^ q 7 ( &.R ..7 q 9 ~ 3 ] e.A 2 9 ~ w o - a % [ ..( ] D.t.}.d.^ ) q : 8 1.7 + X X 7 { 4...7 3 2 7 ",
"3 O.2.[ 3 0 ' 2 8 <.6._ ! 3 - v 7 ~ _ | 3 ' S 1.2 2 ' L Y.@XoXj 7 +.2...( w 2 ' E x 2 3 A E [ 3 o.o.",
"Z 3 1.R %.2 2 3 ] R ] 9 7 3 3 w X.T %.> % 3 ' r.[ 4 C R < J.J.R.r % Z E &.2 3 ~ 9 2 3 w w <.w.q &.7.",
"v 2 7 1.A r 3.+.~ 7 ! w q 2 3 ..R &.^. Xs 9 7 ~ ( 7 8 @ a Y.6 - _ 7 3 S Y 2 3 3 O.*.0 7 0 ~ w _ 3 v ",
"w ( 3 3 y 7  .E m 3 6.3.0 7 3 l Q > |. XC.| e ] 3.4._ 9 7 X J &.2 0 ~ 9 ' 7 + 2 % I R + 9 <.4.q 2 2 ",
"7.*.3 Y./.P.f 7 ' I I 0 7 ^ 9 ,Xg.X -.1 x 9 3 %.R & 7 ) 8 .X&.+ 2 q o.o.3 7 ( o.~ 9 0 9 I T c 7 ) { ",
"Z @ 5 E.&X].v.@ Z r.9 3 $ 1X^.*Xx.O 1.n 3 + 2 3 7 7 7 3 2 8 * a.c I 2.8 3 ] 0.&.3 7 7 ] U / 3 ' 0.1.",
"0 3 s uX+X{.s @ - ] / w 3 1 #XXXqXa.! 8 3 9 w 3 2 { 4. .3 O A.nX2XM 8 : - .XZ 2 3 0 { ) 3 3 ( ' S ~ ",
"7 7 b k k.Y.y ~ ( 7 { 5.&.8 zXy.:Xi * 7 w o.2.<.3 2 Z E ..o M.vX2X% ( ) ] &.3 2 9 ~ 0 4.*.% _ o.7 3 ",
"3 3 1.$ o o + { 7.1.7 [ R  .p.+ . @ 3 8 ) % ] R ] 2 3 A r.3 o h.; _ 3 1.7.) 3 8 o.o.3 ..E ' w 2.1.7 "
};
